<svg id="Capa_1" enable-background="new 0 0 513.134 513.134" height="512" viewBox="0 0 513.134 513.134" width="512" xmlns="http://www.w3.org/2000/svg"><g><g><g id="XMLID_231_"><g><path d="m456.118 107.495v398.14h-422.98c-5.02 0-9.08-4.07-9.08-9.08v-479.98c0-5.01 4.06-9.08 9.08-9.08h322.98c2.41 0 4.72.96 6.42 2.66l90.92 90.92c1.7 1.7 2.66 4.01 2.66 6.42z" fill="#f9f7f7"/></g></g><path d="m456.118 447.515v58.12h-422.98c-5.02 0-9.08-4.07-9.08-9.08v-479.98c0-5.01 4.06-9.08 9.08-9.08h49.415v396.009c0 24.321 19.717 44.037 44.039 44.035z" fill="#f2eae7"/><g><g><g id="XMLID_232_"><g><path d="m456.118 107.495c0-2.41-.96-4.72-2.66-6.42l-90.92-90.92c-1.7-1.7-4.01-2.66-6.42-2.66h-11.927l-.553 80.76c0 16.95 13.79 30.74 30.74 30.74h.02l81.72-.212z" fill="#f2eae7"/><path d="m455.318 103.785-80.94.21c-8.69 0-15.74-7.05-15.74-15.74l.55-80.23c1.24.45 2.39 1.17 3.35 2.13l90.92 90.92c.79.79 1.41 1.71 1.86 2.71z" fill="#f9f7f7"/></g></g></g><path d="m456.118 146.933-352.27 336.395c-6.122 5.852-8.698 14.229-7.152 22.307h359.422z" fill="#f2eae7"/><path d="m227.72 66.111c0-5.099-4.133-9.232-9.232-9.232h-95.021c-5.099 0-9.232 4.133-9.232 9.232v432.361c0 3.955 3.206 7.162 7.162 7.162h106.323z" fill="#cfeffc"/><path d="m301.728 110.155c-1.31-2.57-4.98-2.57-6.29 0l-22.68 44.33 9.611 16.483h33.18l8.859-16.483z" fill="#fbe88c"/><path d="m292.048 154.694.41-.81 15.821-30.924-6.551-12.805c-1.31-2.57-4.98-2.57-6.29 0l-22.68 44.33 9.611 16.483h9.679z" fill="#fbe372"/><g id="XMLID_233_"><g><path d="m324.818 155.295v172.12l-52.47 60.05v-232.17l.41-.81h51.65z" fill="#b3adb5"/></g></g><g id="XMLID_230_"><g><path d="m154.991 406.849v-349.971h-31.525c-5.099 0-9.232 4.133-9.232 9.232v432.361c0 3.955 3.206 7.162 7.162 7.162h106.324v-24.691-115.904l-52.739 50.362c-7.524 7.185-19.99 1.852-19.99-8.551z" fill="#a9e4f9"/><path d="m324.818 272.316-14.439 13.788c-6.899 6.589-18.331 1.698-18.331-7.842v-123.568l.106-.209h-19.396l-.41.81v232.17l19.7-22.546 32.77-37.504z" fill="#a59ca6"/><path d="m489.078 153.755v347.33c0 2.51-2.04 4.55-4.56 4.55h-363.7c-4.11 0-6.12-5.01-3.15-7.85l363.71-347.32c2.9-2.77 7.7-.72 7.7 3.29zm-50 290.025v-175.234c0-3.219-3.857-4.868-6.184-2.646l-192.085 183.431c-2.386 2.279-.773 6.304 2.526 6.304h183.887c6.548 0 11.856-5.308 11.856-11.855z" fill="#ee878a"/><g><path d="m189.182 483.986c-4.11 0-6.12-5.01-3.15-7.85l303.046-289.39v-32.992c0-4.01-4.8-6.06-7.7-3.29l-363.71 347.32c-2.97 2.84-.96 7.85 3.15 7.85h363.7c2.52 0 4.56-2.04 4.56-4.55v-17.099h-299.896z" fill="#ec6e73"/></g></g></g></g></g><g><path d="m489.264 142.673c-4.441-1.899-9.571-.973-13.065 2.365l-12.585 12.018v-49.562c0-4.429-1.725-8.592-4.854-11.723l-90.919-90.917c-3.131-3.129-7.294-4.854-11.723-4.854h-322.982c-9.142 0-16.578 7.437-16.578 16.578v321.748c0 4.143 3.357 7.5 7.5 7.5s7.5-3.357 7.5-7.5v-321.748c0-.87.708-1.578 1.578-1.578h318.007v73.257c0 12.814 10.425 23.239 23.238 23.239h74.232v59.885l-116.297 111.059v-127.147c0-1.188-.282-2.357-.822-3.415l-23.085-45.144c-1.896-3.707-5.662-6.01-9.826-6.01-4.164.001-7.928 2.305-9.823 6.011l-23.086 45.143c-.54 1.058-.822 2.228-.822 3.415v70.733c0 4.143 3.357 7.5 7.5 7.5s7.5-3.357 7.5-7.5v-63.233h37.465v133.971l-37.465 35.777v-74.356c0-4.143-3.357-7.5-7.5-7.5s-7.5 3.357-7.5 7.5v88.68l-29.632 28.297v-309.051c0-9.227-7.506-16.732-16.732-16.732h-95.021c-9.227 0-16.732 7.506-16.732 16.732v432.022h-73.599c-.87 0-1.578-.708-1.578-1.578v-126.07c0-4.143-3.357-7.5-7.5-7.5s-7.5 3.357-7.5 7.5v126.07c0 9.142 7.437 16.578 16.578 16.578h451.387c6.646 0 12.054-5.407 12.054-12.054v-347.324c-.001-4.831-2.871-9.182-7.313-11.082zm-123.121-54.416v-63.886l72.126 72.125h-63.888c-4.543 0-8.238-3.696-8.238-8.239zm-67.558 32.211 13.973 27.325h-27.947zm-175.118-56.089h95.021c.955 0 1.732.777 1.732 1.732v323.376l-98.485 94.05v-28.494h13.873c4.143 0 7.5-3.357 7.5-7.5s-3.357-7.5-7.5-7.5h-13.873v-69.829h13.873c4.143 0 7.5-3.357 7.5-7.5s-3.357-7.5-7.5-7.5h-13.873v-69.83h13.873c4.143 0 7.5-3.357 7.5-7.5s-3.357-7.5-7.5-7.5h-13.873v-69.829h13.873c4.143 0 7.5-3.357 7.5-7.5s-3.357-7.5-7.5-7.5h-13.873v-69.83h13.873c4.143 0 7.5-3.357 7.5-7.5s-3.357-7.5-7.5-7.5h-13.873v-34.614c-.001-.955.777-1.732 1.732-1.732zm358.109 433.755h-353.407l353.407-337.491z"/><path d="m234.211 463.134h204.865c4.143 0 7.5-3.357 7.5-7.5v-71.888c0-4.143-3.357-7.5-7.5-7.5s-7.5 3.357-7.5 7.5v64.388h-178.652l178.652-170.606v74.059c0 4.143 3.357 7.5 7.5 7.5s7.5-3.357 7.5-7.5v-91.591c0-3.002-1.79-5.715-4.55-6.896-2.764-1.183-5.96-.602-8.13 1.472l-204.865 195.638c-2.217 2.116-2.922 5.369-1.782 8.214 1.141 2.845 3.897 4.71 6.962 4.71z"/></g></g></svg>