<svg height="512pt" viewBox="-15 0 512 512" width="512pt" xmlns="http://www.w3.org/2000/svg"><path d="m163.5 474.5 10-53 67.5-11.167969 67.5 11.167969 10 53v11.5h-155zm0 0" fill="#afafaf"/><path d="m318.5 474.5h-30l-10-53h30zm0 0" fill="#919191"/><path d="m454.5 421.5h-427c-11.046875 0-20-8.953125-20-20v-307c0-11.046875 8.953125-20 20-20h427c11.046875 0 20 8.953125 20 20v307c0 11.046875-8.953125 20-20 20zm0 0" fill="#d8d8d8"/><path d="m474.5 94.5v307c0 11.050781-8.949219 20-20 20h-30c11.050781 0 20-8.949219 20-20v-307c0-11.050781-8.949219-20-20-20h30c11.050781 0 20 8.949219 20 20zm0 0" fill="#afafaf"/><path d="m346.5 504.5h-211c-8.285156 0-15-6.714844-15-15s6.714844-15 15-15h211c8.285156 0 15 6.714844 15 15s-6.714844 15-15 15zm0 0" fill="#d8d8d8"/><path d="m361.5 489.5c0 4.140625-1.679688 7.890625-4.398438 10.601562-2.710937 2.71875-6.460937 4.398438-10.601562 4.398438h-30c4.140625 0 7.890625-1.679688 10.601562-4.398438 2.71875-2.710937 4.398438-6.460937 4.398438-10.601562 0-7.601562-5.660156-13.890625-13-14.859375v-.140625h28c8.28125 0 15 6.71875 15 15zm0 0" fill="#afafaf"/><path d="m439.5 391.5h-397c-2.761719 0-5-2.238281-5-5v-277c0-2.761719 2.238281-5 5-5h397c2.761719 0 5 2.238281 5 5v277c0 2.761719-2.238281 5-5 5zm0 0" fill="#fafeff"/><path d="m444.5 109.5v277c0 2.761719-2.238281 5-5 5h-198.5v-287h198.5c2.761719 0 5 2.238281 5 5zm0 0" fill="#747a89"/><path d="m241 298.5v-67l35.574219 25.355469c5.59375 3.988281 5.59375 12.300781 0 16.289062zm0 0" fill="#525663"/><path d="m241 298.5v-67l-35.574219 25.355469c-5.59375 3.988281-5.59375 12.300781 0 16.289062zm0 0" fill="#efefef"/><path d="m152.5 275.5h-57c-5.523438 0-10-4.476562-10-10v-57c0-5.523438 4.476562-10 10-10h57c5.523438 0 10 4.476562 10 10v57c0 5.523438-4.476562 10-10 10zm0 0" fill="#f2d67c"/><path d="m147.5 335.5h-47c-8.285156 0-15-6.714844-15-15s6.714844-15 15-15h47c8.285156 0 15 6.714844 15 15s-6.714844 15-15 15zm0 0" fill="#ea9292"/><path d="m376.5 142.5h-271c-11.046875 0-20-8.953125-20-20v-95c0-11.046875 8.953125-20 20-20h271c11.046875 0 20 8.953125 20 20v95c0 11.046875-8.953125 20-20 20zm0 0" fill="#aac9e2"/><path d="m396.5 27.5v95c0 11.050781-8.949219 20-20 20h-30c11.050781 0 20-8.949219 20-20v-95c0-11.050781-8.949219-20-20-20h30c11.050781 0 20 8.949219 20 20zm0 0" fill="#699eb5"/><path d="m454.5 67h-50.5v-39.5c0-15.164062-12.335938-27.5-27.5-27.5h-271c-15.164062 0-27.5 12.335938-27.5 27.5v39.5h-50.5c-15.164062 0-27.5 12.335938-27.5 27.5v307c0 15.164062 12.335938 27.5 27.5 27.5h136.953125l-7.171875 38h-21.78125c-12.40625 0-22.5 10.09375-22.5 22.5s10.09375 22.5 22.5 22.5h139.5c4.144531 0 7.5-3.355469 7.5-7.5s-3.355469-7.5-7.5-7.5h-139.5c-4.136719 0-7.5-3.363281-7.5-7.5s3.363281-7.5 7.5-7.5h211c4.136719 0 7.5 3.363281 7.5 7.5s-3.363281 7.5-7.5 7.5h-36.5c-4.140625 0-7.5 3.355469-7.5 7.5s3.359375 7.5 7.5 7.5h36.5c12.40625 0 22.5-10.09375 22.5-22.5s-10.09375-22.5-22.5-22.5h-21.78125l-7.171875-38h136.953125c15.164062 0 27.5-12.335938 27.5-27.5v-307c0-15.164062-12.335938-27.5-27.5-27.5zm-221 216.945312-23.722656-16.910156c-.914063-.648437-1.050782-1.554687-1.050782-2.035156s.136719-1.386719 1.050782-2.035156l23.722656-16.910156zm15-37.890624 23.722656 16.910156c.914063.648437 1.050782 1.554687 1.050782 2.035156s-.136719 1.386719-1.050782 2.035156l-23.722656 16.910156zm0 56.308593 32.429688-23.113281c4.597656-3.277344 7.34375-8.605469 7.34375-14.25s-2.746094-10.972656-7.34375-14.25l-32.429688-23.113281v-77.636719h128c15.164062 0 27.5-12.335938 27.5-27.5v-10.5h33v272h-188.5zm-155.5-274.863281c0-6.894531 5.605469-12.5 12.5-12.5h271c6.894531 0 12.5 5.605469 12.5 12.5v95c0 6.894531-5.605469 12.5-12.5 12.5h-271c-6.894531 0-12.5-5.605469-12.5-12.5zm216.453125 439.5h-136.90625l7.171875-38h122.5625zm157.546875-65.5c0 6.894531-5.605469 12.5-12.5 12.5h-145.867188c-.011718 0-.023437 0-.035156 0h-135.191406c-.015625 0-.03125 0-.046875 0h-145.859375c-6.894531 0-12.5-5.605469-12.5-12.5v-307c0-6.894531 5.609375-12.5 12.5-12.5h50.5v15h-35.5c-6.894531 0-12.5 5.605469-12.5 12.5v190.617188c0 4.140624 3.359375 7.5 7.5 7.5s7.5-3.359376 7.5-7.5v-188.117188h33v10.5c0 15.164062 12.335938 27.5 27.5 27.5h128v77.636719l-32.429688 23.113281c-4.597656 3.277344-7.34375 8.605469-7.34375 14.25s2.746094 10.972656 7.34375 14.25l32.429688 23.113281v81.636719h-188.5v-48.882812c0-4.144532-3.359375-7.5-7.5-7.5s-7.5 3.355468-7.5 7.5v51.382812c0 6.894531 5.605469 12.5 12.5 12.5h397c6.894531 0 12.5-5.605469 12.5-12.5v-277c0-6.894531-5.605469-12.5-12.5-12.5h-35.5v-15h50.5c6.894531 0 12.5 5.605469 12.5 12.5zm0 0"/><path d="m95.5 283h57c9.648438 0 17.5-7.851562 17.5-17.5v-57c0-9.648438-7.851562-17.5-17.5-17.5h-57c-9.648438 0-17.5 7.851562-17.5 17.5v57c0 9.648438 7.851562 17.5 17.5 17.5zm-2.5-74.5c0-1.378906 1.121094-2.5 2.5-2.5h57c1.378906 0 2.5 1.121094 2.5 2.5v57c0 1.378906-1.121094 2.5-2.5 2.5h-57c-1.378906 0-2.5-1.121094-2.5-2.5zm0 0"/><path d="m100.5 343h47c12.40625 0 22.5-10.09375 22.5-22.5s-10.09375-22.5-22.5-22.5h-47c-12.40625 0-22.5 10.09375-22.5 22.5s10.09375 22.5 22.5 22.5zm0-30h47c4.136719 0 7.5 3.363281 7.5 7.5s-3.363281 7.5-7.5 7.5h-47c-4.136719 0-7.5-3.363281-7.5-7.5s3.363281-7.5 7.5-7.5zm0 0"/><path d="m348 214.5h-48c-4.144531 0-7.5 3.355469-7.5 7.5s3.355469 7.5 7.5 7.5h48c4.144531 0 7.5-3.355469 7.5-7.5s-3.359375-7.5-7.5-7.5zm0 0"/><path d="m396 214.5h-18c-4.144531 0-7.5 3.355469-7.5 7.5s3.355469 7.5 7.5 7.5h18c4.144531 0 7.5-3.355469 7.5-7.5s-3.359375-7.5-7.5-7.5zm0 0"/><path d="m396 244.5h-18c-4.144531 0-7.5 3.355469-7.5 7.5s3.355469 7.5 7.5 7.5h18c4.144531 0 7.5-3.355469 7.5-7.5s-3.359375-7.5-7.5-7.5zm0 0"/><path d="m348 244.5h-18c-4.144531 0-7.5 3.355469-7.5 7.5s3.355469 7.5 7.5 7.5h18c4.144531 0 7.5-3.355469 7.5-7.5s-3.359375-7.5-7.5-7.5zm0 0"/><path d="m396 274.5h-18c-4.144531 0-7.5 3.355469-7.5 7.5s3.355469 7.5 7.5 7.5h18c4.144531 0 7.5-3.355469 7.5-7.5s-3.359375-7.5-7.5-7.5zm0 0"/><path d="m348 274.5h-18c-4.144531 0-7.5 3.355469-7.5 7.5s3.355469 7.5 7.5 7.5h18c4.144531 0 7.5-3.355469 7.5-7.5s-3.359375-7.5-7.5-7.5zm0 0"/><path d="m348 304.5h-48c-4.144531 0-7.5 3.355469-7.5 7.5s3.355469 7.5 7.5 7.5h48c4.144531 0 7.5-3.355469 7.5-7.5s-3.359375-7.5-7.5-7.5zm0 0"/><path d="m396 304.5h-18c-4.144531 0-7.5 3.355469-7.5 7.5s3.355469 7.5 7.5 7.5h18c4.144531 0 7.5-3.355469 7.5-7.5s-3.359375-7.5-7.5-7.5zm0 0"/><path d="m161.375 115h25.5c6.894531 0 12.5-5.605469 12.5-12.5v-10c0-4.144531-3.359375-7.5-7.5-7.5s-7.5 3.355469-7.5 7.5v7.5h-20.5v-50h20.5v7.5c0 4.144531 3.359375 7.5 7.5 7.5s7.5-3.355469 7.5-7.5v-10c0-6.894531-5.605469-12.5-12.5-12.5h-25.5c-6.894531 0-12.5 5.605469-12.5 12.5v55c0 6.894531 5.609375 12.5 12.5 12.5zm0 0"/><path d="m221.625 100c-4.140625 0-7.5 3.355469-7.5 7.5s3.359375 7.5 7.5 7.5h32c6.894531 0 12.5-5.605469 12.5-12.5v-23c0-6.894531-5.605469-12.5-12.5-12.5h-24.5v-17h29.5c4.144531 0 7.5-3.355469 7.5-7.5s-3.355469-7.5-7.5-7.5h-32c-6.894531 0-12.5 5.605469-12.5 12.5v22c0 6.894531 5.605469 12.5 12.5 12.5h24.5v18zm0 0"/><path d="m288.625 100c-4.144531 0-7.5 3.355469-7.5 7.5s3.355469 7.5 7.5 7.5h32c6.894531 0 12.5-5.605469 12.5-12.5v-23c0-6.894531-5.605469-12.5-12.5-12.5h-24.5v-17h29.5c4.144531 0 7.5-3.355469 7.5-7.5s-3.355469-7.5-7.5-7.5h-32c-6.894531 0-12.5 5.605469-12.5 12.5v22c0 6.894531 5.605469 12.5 12.5 12.5h24.5v18zm0 0"/></svg>