<svg id="Capa_1" enable-background="new 0 0 513.505 513.505" height="512" viewBox="0 0 513.505 513.505" width="512" xmlns="http://www.w3.org/2000/svg"><g><g><path d="m460.594 328.024 25.569 16.001c11.684 7.312 18.78 20.124 18.78 33.907v34.476c0 4.902-3.974 8.876-8.876 8.876h-119.05c-4.902 0-8.876-3.974-8.876-8.876v-34.476c0-13.783 7.096-26.595 18.78-33.907l25.569-16.001v-69.505h48.105v69.505z" fill="#f9f7f7"/><path d="m422.603 296.831v7.089h-10.113v24.103l-25.569 16.001c-11.684 7.312-18.78 20.124-18.78 33.906v34.476c0 4.902 3.974 8.876 8.876 8.876h6.087v-32.501c0-13.783 7.096-26.595 18.78-33.907l20.24-12.667c3.315-2.075 5.329-5.71 5.329-9.621 0-4.512 3.688-8.145 8.199-8.087.296.004.593.006.89.006 8.396 0 16.476-1.362 24.053-3.845v-23.831h-37.992z" fill="#f2eae7"/><path d="m224.272 263.501v68 39.453h64.155l.805-39.453v-68z" fill="#ffe6c6"/><path d="m238.949 263.501h-14.676v107.453h18.325v-42.707c0-9.066 7.35-16.416 16.416-16.416h14.329c5.731 0 11.135-1.418 15.89-3.911v-35.196-9.224h-50.284z" fill="#f8d3aa"/><path d="m101.015 328.16 25.569 16.001c11.684 7.312 18.78 20.124 18.78 33.907v34.476c0 4.902-3.974 8.876-8.876 8.876h-119.05c-4.902 0-8.876-3.974-8.876-8.876v-34.476c0-13.783 7.096-26.595 18.78-33.907l25.569-16.001v-69.505h48.105v69.505z" fill="#f9f7f7"/><g><path d="m254.962 70.721c-49.94.7-90.18 42.36-89.22 92.29.53 28.21 13.98 53.25 34.67 69.49 7.98 6.27 13.87 14.65 16.95 24.05l19.928 13.204h44.585l13.277-13.294c3.05-9.32 8.85-17.65 16.78-23.83 21.21-16.57 34.85-42.38 34.85-71.39 0-50.42-41.23-91.22-91.82-90.52z" fill="#fbe88c"/><g id="XMLID_172_"><g><path d="m343.292 359.861-23.19-12.17-63.35 12.09-27.049-5.949-36.301-6.141-23.19 12.17c-26.21 13.75-42.62 40.9-42.62 70.49v66.425c0 5.094 4.13 9.225 9.224 9.225h239.871c5.095 0 9.224-4.13 9.224-9.225v-66.425c.001-29.59-16.409-56.74-42.619-70.49z" fill="#f9f7f7"/><path d="m272.412 411.751-3.395-13.804h-23.829l-4.096 13.804-12.346 63.175c-.148.756-.149 1.534-.004 2.291l5.53 28.784h44.96l5.422-28.223c.217-1.128.215-2.286-.005-3.413z" fill="#cac5cb"/><path d="m273.02 422.751c.513 0 1.021-.037 1.524-.093l-2.132-10.907-3.395-13.804h-11.122-5.943-6.764l-4.096 13.804-12.419 63.549c-.099.509-.1 1.032-.002 1.542l5.602 29.159h12.707l-5.75-29.93 7.623-39.004c1.625-8.315 8.911-14.316 17.384-14.316z" fill="#b3adb5"/><path d="m320.102 347.691-16.85-5.91-46.5 18-32.48-7.144-30.87-4.946-13.289 6.974-9.901 5.196c-26.21 13.75-42.62 40.9-42.62 70.49v66.425c0 5.095 4.13 9.225 9.225 9.225h26.622v-62.583c0-19.233 6.937-37.431 18.99-51.591 4.697-5.518 13.541-4.332 16.693 2.194l3.035 6.284c3.011 6.306 9.476 10.381 16.469 10.381 4.784 0 9.308-1.841 12.741-5.188l19.213-18.742c3.434-3.349 8.912-3.349 12.345 0l19.215 18.744c3.43 3.344 7.954 5.186 12.739 5.186 6.992 0 13.457-4.075 16.439-10.321l22.073-45.7z" fill="#f2eae7"/><path d="m292.599 373.447-9.51-16.223-26.336 2.558-22.533-2.558-9.142 20.049 1.955 11.509 10 21.23c.5 1.062 1.569 1.74 2.742 1.74h33.245c1.173 0 2.241-.677 2.742-1.739l10.01-21.231z" fill="#cac5cb"/><path d="m225.077 377.273 1.955 11.509 6.76 14.351 16.787-16.375c3.434-3.349 8.912-3.349 12.345 0l16.304 15.904 6.544-13.879 6.826-15.334-9.51-16.223-26.336 2.558-22.533-2.558z" fill="#b3adb5"/><path d="m320.102 347.691-22.29 46.15c-.96 2.01-3.61 2.47-5.2.92l-35.86-34.98 32.48-28.28z" fill="#f9f7f7"/><path d="m256.752 359.781-35.86 34.98c-1.59 1.55-4.24 1.09-5.2-.92l-22.29-46.15 30.87-16.19z" fill="#f9f7f7"/><path d="m226.288 346.64 9.593-5.031-11.609-10.108-30.87 16.19 22.29 46.15c.96 2.01 3.61 2.47 5.2.92l3.893-3.797-7.8-16.149c-5.005-10.364-.889-22.829 9.303-28.175z" fill="#f8f3f2"/></g></g><circle cx="436.542" cy="247.107" fill="#f9f7f7" r="68.401"/><path d="m64.429 299.64v6.15h-11.518v22.369l-25.568 16.001c-11.684 7.312-18.78 20.124-18.78 33.907v34.476c0 4.902 3.974 8.876 8.876 8.876h5.734v-34.255c0-13.783 7.096-26.595 18.78-33.907l19.32-12.091c3.887-2.433 6.248-6.696 6.248-11.282v-1.429c0-2.405 2.045-4.268 4.446-4.112 1.652.108 3.318.163 4.997.163 8.396 0 16.476-1.362 24.052-3.845v-21.021z" fill="#f2eae7"/><circle cx="76.963" cy="247.107" fill="#f9f7f7" r="68.401"/><g fill="#f2eae7"><path d="m402.621 247.107c0-31.821 21.738-58.569 51.168-66.212-5.508-1.43-11.292-2.189-17.247-2.189-37.776 0-68.401 30.624-68.401 68.401s30.624 68.401 68.401 68.401c5.956 0 11.763-.762 17.271-2.193-29.43-7.643-51.192-34.387-51.192-66.208z"/><path d="m43.042 247.107c0-31.821 21.725-58.571 51.154-66.214-5.508-1.43-11.278-2.187-17.234-2.187-37.776 0-68.401 30.624-68.401 68.401s30.624 68.401 68.401 68.401c5.956 0 11.763-.762 17.271-2.193-29.429-7.643-51.191-34.387-51.191-66.208z"/></g></g><path d="m245.035 264.227c-3.08-10.24-8.97-19.368-16.95-26.198-20.69-17.691-34.14-44.967-34.67-75.697-.702-39.757 20.613-74.697 51.635-90.919-45.242 5.644-80.204 45.02-79.308 91.6.53 28.21 13.98 53.25 34.67 69.49 7.98 6.27 13.87 14.65 16.95 24.05l19.928 13.204h9.111c-.367-1.875-.819-3.721-1.366-5.53z" fill="#fbe372"/><path d="m295.142 256.461h.01c-1.61 4.9-2.46 10.07-2.46 15.34v5.68c0 10.69-8.67 19.35-19.35 19.35h-34.18c-10.68 0-19.35-8.66-19.35-19.35v-5.67c0-5.26-.85-10.4-2.45-15.26z" fill="#e1dee2"/><path d="m247.485 287.026v-6.176c0-5.73-.85-11.329-2.45-16.623-.797-2.65-1.786-5.223-2.947-7.704l-24.726.029c1.6 4.86 2.45 10 2.45 15.26v5.67c0 10.69 8.67 19.35 19.35 19.35h10.552c-1.417-2.931-2.229-6.263-2.229-9.806z" fill="#cac5cb"/></g><g><path d="m346.779 353.219-50.046-26.256v-36.326c2.197-3.891 3.457-8.378 3.457-13.155v-5.676c0-13.022 5.963-25.147 16.358-33.268 9.322-7.281 17.18-16.084 23.354-26.165 2.164-3.532 1.054-8.149-2.478-10.313s-8.149-1.055-10.313 2.478c-5.233 8.544-11.894 16.006-19.796 22.178-7.695 6.01-13.579 13.66-17.344 22.245h-8.097v-60.548l17.145-38.3c3.291-7.353 2.642-15.779-1.739-22.54s-11.807-10.797-19.862-10.797h-42.333c-8.056 0-15.48 4.036-19.861 10.797s-5.031 15.187-1.74 22.54l17.145 38.3v60.548h-8.135c-3.79-8.597-9.71-16.286-17.453-22.361-19.735-15.484-31.327-38.715-31.805-63.735-.423-22.159 7.905-43.211 23.45-59.279 15.525-16.047 36.257-25.054 58.377-25.363 22.417-.299 43.54 8.175 59.486 23.9 15.949 15.729 24.732 36.725 24.732 59.123 0 5.313-.514 10.657-1.526 15.882-.788 4.066 1.87 8.001 5.937 8.79 4.066.791 8.002-1.87 8.79-5.936 1.194-6.163 1.8-12.467 1.8-18.736 0-26.444-10.37-51.233-29.2-69.803-18.827-18.566-43.775-28.585-70.228-28.219-26.141.365-50.628 10.995-68.949 29.932-18.341 18.957-28.167 43.815-27.667 69.995.564 29.545 14.248 56.973 37.542 75.25 10.507 8.245 16.533 20.421 16.533 33.408v5.672c0 5.463 1.644 10.547 4.457 14.792v34.689l-50.046 26.256c-28.766 15.092-46.635 44.647-46.635 77.131v75.654c0 4.142 3.358 7.5 7.5 7.5s7.5-3.358 7.5-7.5v-75.653c0-26.89 14.792-51.355 38.604-63.848l16.322-8.563 18.917 39.167c1.5 3.107 4.425 5.319 7.823 5.917.617.108 1.236.162 1.853.162 2.151 0 4.257-.653 6.039-1.858l6.419 13.626c.351.744.824 1.402 1.374 1.977l-3.181 16.277c-.794 4.065 1.857 8.005 5.922 8.799.486.095.97.141 1.447.141 3.515 0 6.653-2.483 7.353-6.063l3.289-16.827h18.962l11.07 56.649c.023.119.023.238.001.358l-5.442 28.326c-.781 4.068 1.883 7.999 5.95 8.78.479.092.954.136 1.423.136 3.525 0 6.668-2.497 7.357-6.086l5.442-28.323c.387-2.012.384-4.053-.01-6.066l-11.097-56.781c.303-.403.581-.828.802-1.296l6.598-14.006c1.884 1.448 4.198 2.237 6.565 2.237.616 0 1.236-.053 1.853-.161 3.397-.598 6.323-2.809 7.824-5.917l18.917-39.168 16.322 8.563c23.812 12.493 38.604 36.958 38.604 63.848v75.654c0 4.142 3.357 7.5 7.5 7.5s7.5-3.358 7.5-7.5v-75.654c.003-32.484-17.867-62.039-46.632-77.131zm-76.591 51.037h-27.577l-6.521-13.841 20.662-20.153 20.178 19.682zm-13.436-54.417-24.98-21.756v-24.795c2.35.674 4.829 1.043 7.393 1.043h34.174c2.931 0 5.751-.479 8.394-1.351v25.102zm-11.777-166.092-17.799-39.763c-1.224-2.733-.991-5.741.637-8.254s4.279-3.954 7.273-3.954h42.333c2.994 0 5.646 1.441 7.273 3.954s1.86 5.521.637 8.254l-17.799 39.763c-.432.964-.654 2.008-.654 3.064v62.15h-21.246v-62.15c-.001-1.056-.224-2.1-.655-3.064zm40.773 80.214c-.355 2.579-.558 5.195-.558 7.844v5.676c0 6.534-5.316 11.85-11.851 11.85h-34.174c-6.534 0-11.85-5.316-11.85-11.85v-5.672c0-2.648-.205-5.266-.565-7.848zm-82.441 87.005 19.907-10.444 22.477 19.576-25.813 25.178zm90.319 34.309-25.812-25.178 22.477-19.576 19.906 10.444z"/><path d="m236.2 476.264c-.022-.119-.022-.238.001-.358l1.652-8.452c.794-4.065-1.857-8.005-5.922-8.799s-8.004 1.857-8.799 5.922l-1.651 8.45c-.394 2.011-.397 4.052-.01 6.066l5.442 28.326c.689 3.59 3.832 6.086 7.357 6.086.469 0 .945-.044 1.423-.136 4.068-.781 6.732-4.712 5.95-8.78z"/><path d="m490.141 337.804-22.047-13.798v-7.895c26.141-12.001 44.349-38.408 44.349-69.004 0-41.852-34.049-75.901-75.901-75.901s-75.9 34.049-75.9 75.901c0 30.596 18.208 57.004 44.349 69.004v7.895l-22.048 13.797c-3.512 2.198-4.576 6.825-2.379 10.336 1.423 2.274 3.865 3.522 6.364 3.522 1.359 0 2.735-.369 3.972-1.143l25.569-16.001c2.191-1.371 3.521-3.773 3.521-6.358v-6.992c5.332 1.191 10.866 1.84 16.552 1.84s11.22-.649 16.553-1.84v6.992c0 2.584 1.33 4.987 3.521 6.357l25.568 16.001c9.554 5.979 15.258 16.278 15.258 27.549v43.352c0 4.142 3.357 7.5 7.5 7.5s7.5-3.358 7.5-7.5v-43.352c0-16.471-8.337-31.524-22.301-40.262zm-114.5-90.697c0-33.581 27.319-60.901 60.9-60.901s60.901 27.32 60.901 60.901-27.32 60.9-60.901 60.9-60.9-27.319-60.9-60.9z"/><path d="m126.577 351.662c2.499 0 4.942-1.248 6.365-3.522 2.198-3.511 1.133-8.139-2.378-10.336l-22.047-13.798v-7.895c26.14-12.001 44.348-38.408 44.348-69.004 0-41.852-34.049-75.901-75.901-75.901-14.141 0-27.952 3.929-39.939 11.362-3.521 2.183-4.605 6.806-2.422 10.326 2.182 3.521 6.806 4.605 10.326 2.422 9.612-5.959 20.689-9.11 32.035-9.11 33.581 0 60.901 27.32 60.901 60.901s-27.32 60.9-60.901 60.9-60.9-27.32-60.9-60.9c0-11.141 3.035-22.038 8.778-31.513 2.147-3.542 1.016-8.154-2.527-10.301s-8.154-1.015-10.301 2.527c-7.163 11.819-10.95 25.405-10.95 39.288 0 30.596 18.208 57.003 44.348 69.004v7.895l-22.047 13.798c-13.964 8.739-22.301 23.791-22.301 40.264v43.352c0 4.142 3.358 7.5 7.5 7.5s7.5-3.358 7.5-7.5v-43.352c0-11.271 5.704-21.57 15.259-27.549l25.568-16.001c2.19-1.371 3.521-3.773 3.521-6.357v-6.992c5.332 1.191 10.866 1.84 16.552 1.84s11.22-.649 16.552-1.84v6.992c0 2.584 1.331 4.987 3.521 6.357l25.568 16.001c1.237.773 2.613 1.142 3.972 1.142z"/><path d="m256.752 23.672c4.143 0 7.5-3.358 7.5-7.5v-8.672c0-4.142-3.357-7.5-7.5-7.5-4.142 0-7.5 3.358-7.5 7.5v8.672c0 4.142 3.358 7.5 7.5 7.5z"/><path d="m179.592 36.617c1.329 2.59 3.956 4.079 6.68 4.079 1.151 0 2.321-.266 3.417-.828 3.686-1.89 5.141-6.41 3.25-10.096l-3.958-7.716c-1.89-3.685-6.409-5.142-10.096-3.25-3.686 1.89-5.141 6.41-3.25 10.096z"/><path d="m119.896 81.539 7.043 5.06c1.325.952 2.854 1.41 4.37 1.41 2.333 0 4.632-1.085 6.097-3.125 2.417-3.364 1.649-8.05-1.715-10.467l-7.043-5.06c-3.365-2.417-8.051-1.65-10.467 1.715-2.416 3.364-1.649 8.051 1.715 10.467z"/><path d="m323.816 39.868c1.096.562 2.265.828 3.417.828 2.724 0 5.351-1.489 6.679-4.079l3.958-7.716c1.891-3.686.436-8.206-3.25-10.096-3.687-1.891-8.206-.435-10.096 3.25l-3.958 7.716c-1.891 3.686-.436 8.206 3.25 10.097z"/><path d="m382.196 88.009c1.516 0 3.046-.458 4.37-1.41l7.043-5.06c3.364-2.417 4.132-7.103 1.715-10.467-2.417-3.365-7.104-4.132-10.467-1.715l-7.043 5.06c-3.364 2.417-4.132 7.103-1.715 10.467 1.465 2.04 3.764 3.125 6.097 3.125z"/></g></g></svg>