<svg id="Capa_1" enable-background="new 0 0 511.063 511.063" height="512" viewBox="0 0 511.063 511.063" width="512" xmlns="http://www.w3.org/2000/svg"><g><g><circle cx="236.113" cy="255.529" fill="#ee878a" r="228.611"/><path d="m88.011 255.456c0-112.447 81.176-205.939 188.129-225.046-13-2.296-26.369-3.492-40.027-3.492-126.259 0-228.611 102.352-228.611 228.611s102.352 228.611 228.611 228.611c13.812 0 27.337-1.225 40.474-3.572-107.169-18.931-188.576-112.512-188.576-225.112z" fill="#ec6e73"/><path d="m464.342 268.759c-19.179-12.066-41.865-19.071-66.149-19.071-68.698 0-124.588 55.883-124.588 124.572 0 36.839 16.442 71.491 43.988 94.932 82.121-31.326 141.514-108.619 146.749-200.433z" fill="#ec6e73"/><circle cx="236.111" cy="255.531" fill="#f9f7f7" r="188.223"/><path d="m424.334 255.531c0-1.03-.022-2.054-.039-3.079-8.421-1.806-17.152-2.764-26.103-2.764-68.698 0-124.588 55.883-124.588 124.572 0 21.965 5.848 43.151 16.407 61.648 77.684-23.18 134.323-95.158 134.323-180.377z" fill="#f2eae7"/><path d="m171.756 78.594c-72.271 26.285-123.868 95.581-123.868 176.937 0 81.48 51.769 150.872 124.213 177.065-51.323-41.921-84.09-105.704-84.09-177.14 0-71.283 32.613-134.936 83.745-176.862z" fill="#f2eae7"/><path d="m398.193 269.688c-57.762 0-104.588 46.826-104.588 104.573 0 39.047 21.413 73.072 53.122 91.037l15.566-11.707h75.408l12.885 11.206c31.205-18.097 52.181-51.864 52.181-90.537-.001-57.746-46.812-104.572-104.574-104.572z" fill="#cfeffc"/><g><path d="m250.897 217.121v-63.486c0-8.166-6.62-14.786-14.786-14.786-8.166 0-14.786 6.62-14.786 14.786v63.486 29.039l29.572-1.951z" fill="#ded4cf"/><path d="m219.407 293.146-29.051 29.051c-5.774 5.774-15.136 5.774-20.911 0-5.774-5.774-5.774-15.137 0-20.911l29.051-29.051 16.875-16.704 23.016 18.606z" fill="#ded4cf"/><path d="m362.867 449.836c-19.923-19.034-32.351-45.842-32.351-75.575 0-51.447 37.187-94.234 86.142-102.955-5.994-1.068-12.163-1.618-18.464-1.618-57.762 0-104.588 46.826-104.588 104.573 0 39.045 21.396 73.086 53.103 91.051z" fill="#a9e4f9"/><g id="XMLID_252_"><g><path d="m450.586 464.798c-15.397 8.939-33.29 14.051-52.392 14.051-18.725 0-36.284-4.916-51.485-13.537l.348-11.979c0-10.391 5.354-20.025 14.142-25.531l19.254-12.054v-52.181h36.224v52.181l19.254 12.054c8.803 5.505 14.142 15.14 14.142 25.531z" fill="#f9f7f7"/></g></g><path d="m387.992 389.96v6.421h-7.541v19.368l-19.254 12.055c-8.787 5.505-14.142 15.14-14.142 25.531l-.348 11.979c4.95 2.808 13.552 6.609 12.588 6.062l.404-12.442c0-10.391 5.354-20.025 14.141-25.531l16.964-10.621c1.425-.892 2.29-2.455 2.29-4.136 0-2.721 2.229-4.886 4.95-4.859.174.002.349.003.524.003 6.344 0 12.434-1.095 18.106-3.085v-20.745z" fill="#f2eae7"/><circle cx="398.569" cy="358.947" fill="#f9f7f7" r="45.768"/><path d="m369.279 358.947c0-22.462 16.214-41.141 37.556-45.023-2.674-.486-5.452-.745-8.267-.745-25.277 0-45.768 20.491-45.768 45.768 0 25.276 20.491 45.767 45.768 45.767 2.814 0 5.577-.255 8.251-.742-21.341-3.881-37.54-22.563-37.54-45.025z" fill="#f2eae7"/></g><circle cx="236.111" cy="255.531" fill="#ee878a" r="41.158"/></g><g><path d="m102.26 431.521c-26.529-20.21-48.495-46.567-63.52-76.225-15.753-31.089-23.74-64.656-23.74-99.764 0-59.062 23-114.588 64.762-156.35 41.762-41.763 97.288-64.762 156.349-64.762 59.062 0 114.587 22.999 156.35 64.762 41.762 41.762 64.762 97.288 64.762 156.35l-.011.845c-.014 4.143 3.333 7.512 7.475 7.525h.025c4.131 0 7.486-3.341 7.5-7.475l.004-.305c.004-.196.007-.394.007-.591 0-63.068-24.56-122.361-69.155-166.956-44.597-44.595-103.89-69.154-166.957-69.154s-122.361 24.559-166.956 69.155c-44.595 44.595-69.155 103.888-69.155 166.956 0 37.486 8.532 73.333 25.359 106.545 16.043 31.664 39.492 59.804 67.811 81.376 1.358 1.034 2.955 1.534 4.54 1.534 2.261 0 4.496-1.018 5.972-2.955 2.509-3.295 1.873-8.001-1.422-10.511z"/><path d="m303.659 466.12c-21.785 6.982-44.512 10.522-67.548 10.522-37.745 0-75.017-9.69-107.786-28.022-3.615-2.024-8.185-.732-10.207 2.883s-.731 8.185 2.884 10.207c35.001 19.582 74.806 29.933 115.109 29.933 24.592 0 48.858-3.781 72.126-11.237 3.944-1.265 6.117-5.487 4.854-9.432-1.265-3.946-5.489-6.112-9.432-4.854z"/><path d="m164.142 327.501c4.209 4.209 9.806 6.527 15.759 6.527s11.549-2.318 15.758-6.527l25.628-25.628c4.677 1.5 9.656 2.317 14.824 2.317 26.83 0 48.658-21.828 48.658-48.658 0-18.801-10.725-35.133-26.372-43.232v-12.28c0-4.143-3.358-7.5-7.5-7.5s-7.5 3.357-7.5 7.5v7.401c-2.377-.358-4.81-.547-7.286-.547s-4.909.188-7.287.547v-53.785c0-2.1.862-4.028 2.429-5.432 1.563-1.399 3.594-2.04 5.717-1.807 3.604.397 6.427 3.747 6.427 7.626v13.984c0 4.142 3.357 7.5 7.5 7.5 4.142 0 7.5-3.357 7.5-7.5v-13.984c0-11.604-8.504-21.292-19.782-22.536-6.326-.695-12.657 1.323-17.37 5.544-4.716 4.224-7.421 10.276-7.421 16.604v58.663c-15.647 8.099-26.372 24.432-26.372 43.232 0 5.168.817 10.147 2.317 14.824l-25.628 25.628c-8.688 8.691-8.688 22.828.001 31.519zm71.969-105.628c18.559 0 33.658 15.099 33.658 33.658s-15.099 33.658-33.658 33.658c-18.56 0-33.659-15.099-33.659-33.658s15.1-33.658 33.659-33.658zm-61.362 84.717 22.209-22.209c2.901 3.927 6.377 7.403 10.304 10.304l-22.209 22.21c-1.376 1.376-3.205 2.134-5.151 2.134s-3.776-.758-5.152-2.134c-2.842-2.843-2.842-7.465-.001-10.305z"/><path d="m352.25 139.391c1.465 1.464 3.385 2.196 5.304 2.196s3.839-.732 5.304-2.196l6.603-6.603c27.666 30.015 44.374 68.295 47.394 109.2.305 4.131 3.892 7.227 8.032 6.927 4.131-.305 7.232-3.901 6.927-8.032-3.639-49.283-25.61-95.054-61.867-128.878-36.44-33.997-83.972-52.72-133.836-52.72-108.21 0-196.246 88.036-196.246 196.247s88.035 196.246 196.246 196.246c15.2 0 30.364-1.753 45.069-5.21 4.032-.947 6.533-4.985 5.585-9.017-.946-4.032-4.99-6.528-9.017-5.585-11.163 2.624-22.615 4.166-34.137 4.639v-9.328c0-4.143-3.358-7.5-7.5-7.5s-7.5 3.357-7.5 7.5v9.333c-44.327-1.814-84.596-19.618-115.182-47.792l6.542-6.541c2.929-2.929 2.929-7.678 0-10.606-2.928-2.929-7.677-2.93-10.606-.001l-6.542 6.542c-28.174-30.586-45.977-70.855-47.791-115.182h9.332c4.142 0 7.5-3.357 7.5-7.5s-3.358-7.5-7.5-7.5h-9.332c1.814-44.327 19.618-84.595 47.791-115.181l6.542 6.541c1.464 1.464 3.384 2.196 5.303 2.196s3.839-.732 5.303-2.197c2.929-2.929 2.929-7.678 0-10.606l-6.541-6.541c30.586-28.174 70.854-45.977 115.181-47.791v9.333c0 4.143 3.358 7.5 7.5 7.5s7.5-3.357 7.5-7.5v-9.337c42.912 1.755 83.54 18.54 115.239 47.736l-6.6 6.6c-2.928 2.931-2.928 7.679 0 10.608z"/><path d="m398.185 261.391c-62.24 0-112.877 50.637-112.877 112.877s50.637 112.877 112.877 112.877c62.241 0 112.878-50.637 112.878-112.877s-50.637-112.877-112.878-112.877zm-44.78 199.893v-7.35c0-7.925 4.011-15.166 10.729-19.37l19.4-12.142c2.191-1.371 3.521-3.773 3.521-6.357v-4.699c3.474.71 7.07 1.084 10.751 1.084 3.669 0 7.266-.367 10.751-1.071v4.687c0 2.584 1.33 4.986 3.521 6.357l19.4 12.142c6.718 4.204 10.729 11.445 10.729 19.37v7.735c-13.241 6.696-28.198 10.476-44.022 10.476-16.127-.001-31.353-3.924-44.78-10.862zm103.752-8.952c-.518-12.495-7.048-23.804-17.721-30.483l-15.879-9.938v-6.005c11.839-6.459 21.079-17.319 25.371-30.885 1.25-3.949-.938-8.164-4.888-9.413-3.949-1.252-8.164.938-9.413 4.888-5.101 16.122-19.898 26.954-36.821 26.954-21.293 0-38.616-17.323-38.616-38.616s17.323-38.616 38.616-38.616c15.463 0 29.397 9.186 35.5 23.401 1.633 3.805 6.043 5.568 9.85 3.933 3.807-1.634 5.567-6.044 3.934-9.85-8.471-19.733-27.815-32.484-49.283-32.484-29.564 0-53.616 24.052-53.616 53.616 0 20.237 11.272 37.887 27.865 47.012v6.065l-15.879 9.938c-10.511 6.578-17.014 17.646-17.703 29.915-23.196-17.915-38.165-45.988-38.165-77.496 0-53.97 43.907-97.877 97.877-97.877s97.878 43.907 97.878 97.877c-.001 31.843-15.289 60.179-38.907 78.064z"/></g></g></svg>