<svg id="Capa_1" enable-background="new 0 0 512 512" height="512" viewBox="0 0 512 512" width="512" xmlns="http://www.w3.org/2000/svg"><g><g><path d="m343.396 363.781h-10.451l-1.256 5.255h-151.378l-1.256-5.255h-31.577c-26.779 0-48.489 21.709-48.489 48.489v92.23h306.021v-79.104c0-34.029-27.585-61.615-61.614-61.615z" fill="#596c76"/><path d="m364.522 363.781h-22c26.779 0 48.489 21.709 48.489 48.489v92.23h22v-92.23c-.001-26.779-21.71-48.489-48.489-48.489z" fill="#465a61"/><path d="m186.542 363.782 16.413 53.143c7.186 23.266 28.694 39.134 53.045 39.134 24.203 0 45.815-15.727 53.045-39.134l16.413-53.143z" fill="#eaf6ff"/><path d="m295.579 250.972h-79.159v75.029l-8.264 12.661v51.097h95.688v-51.246l-8.265-12.619z" fill="#ffa78f"/><path d="m390 116.687v-24.917h-266.5v24.917l-7.59 10.872v66.173h274.182v-76.915z" fill="#dd7f66"/><path d="m390.092 91.77h-18.48v101.962h25.994v-66.173l-7.514-10.872z" fill="#d6694b"/><path d="m256 389.759v-.006l-.004.003-.004-.003v.006l-18.419 16.164 7.849 20.727h21.146l7.849-20.727z" fill="#fd8087"/><path d="m266.577 426.65h-21.153l-6.584 26.688c11.158 3.628 23.16 3.629 34.321 0z" fill="#fd8087"/><path d="m208.156 338.662c30.09 13.583 65.6 13.546 95.688-.148v-87.542h-95.688z" fill="#f89580"/><path d="m196.512 236.552h-56.124c-21.578 0-39.07-17.492-39.07-39.07v-.24c0-21.578 17.492-39.07 39.07-39.07h56.124z" fill="#ffb09e"/><path d="m315.488 158.173h56.124c21.578 0 39.07 17.492 39.07 39.07v.24c0 21.578-17.492 39.07-39.07 39.07h-56.124z" fill="#f89580"/><path d="m359.294 217.735v-40.787c0-63.546-51.515-114.661-113.455-114.661-59.051 4.883-105.455 54.35-105.455 114.661v40.787c0 60.312 46.404 109.778 105.456 114.661 61.95 0 113.454-51.124 113.454-114.661z" fill="#ffcebf"/><path d="m339.024 237.581c-6.827 0-11.889 0-18.826 0-4.676 0-8.466 3.791-8.466 8.466s3.791 8.466 8.466 8.466h18.826c4.676 0 8.466-3.791 8.466-8.466s-3.79-8.466-8.466-8.466z" fill="#fe8f83"/><path d="m245.839 62.288c59.051 4.883 105.455 54.35 105.455 114.661v40.787c0 60.312-46.404 109.778-105.455 114.661 68.608 5.666 125.455-47.762 125.455-114.661v-40.787c0-66.272-56.242-120.389-125.455-114.661z" fill="#ffb09e"/><path d="m172.621 237.581h18.826c4.676 0 8.466 3.791 8.466 8.466s-3.791 8.466-8.466 8.466c-6.827 0-11.889 0-18.826 0-4.676 0-8.466-3.791-8.466-8.466s3.79-8.466 8.466-8.466z" fill="#fe8f83"/><path d="m450.491 160.032h-23.394c-1.105 0-2-.895-2-2v-20.397c0-7.565 6.132-13.697 13.697-13.697 7.565 0 13.697 6.132 13.697 13.697v20.397c0 1.105-.895 2-2 2z" fill="#ffd15b"/><path d="m123.5 116.687-7.59 10.873v30.614h172.729c45.824 0 82.973-37.148 82.973-82.973h-248.112z" fill="#dd7f66"/><path d="m115.91 22.841h274.182v104.718h-274.182z" fill="#596c76"/><path d="m371.307 22.841h26.299v104.718h-26.299z" fill="#465a61"/><g fill="#d8ecfe"><path d="m208.156 344.549 47.844 45.204-26.293 23.073c-1.189 1.044-2.98 1.001-4.119-.097l-47.818-46.144c-1.455-1.404-1.16-3.811.591-4.823z"/><path d="m208.156 344.549 47.844 45.204-26.293 23.073c-1.189 1.044-2.98 1.001-4.119-.097l-47.818-46.144c-1.455-1.404-1.16-3.811.591-4.823z"/><path d="m256 389.753c22.09 19.385 12.564 11.025 26.293 23.073 1.189 1.044 2.98 1.002 4.119-.098l47.818-46.144c1.455-1.404 1.16-3.811-.591-4.823l-29.795-17.213c-4.603 4.349-43.128 40.749-47.844 45.205z"/></g><path d="m432.117 7.5c-2.43 0-359.353 0-366.234 0-8.473 0-15.341 6.868-15.341 15.341s6.868 15.341 15.341 15.341h366.234c8.473 0 15.341-6.868 15.341-15.341s-6.869-15.341-15.341-15.341z" fill="#7a8c98"/><path d="m446.117 7.5h-24c8.473 0 15.341 6.868 15.341 15.341 0 8.473-6.868 15.341-15.341 15.341h24c8.473 0 15.341-6.868 15.341-15.341 0-8.473-6.869-15.341-15.341-15.341z" fill="#596c76"/></g><g><path d="m280.346 244.952c-4.142 0-7.5 3.358-7.5 7.5 0 9.387-7.636 17.023-17.023 17.023s-17.023-7.637-17.023-17.023c0-4.142-3.358-7.5-7.5-7.5s-7.5 3.358-7.5 7.5c0 17.658 14.366 32.023 32.023 32.023s32.023-14.366 32.023-32.023c0-4.142-3.358-7.5-7.5-7.5z"/><path d="m199.459 187.593c-4.142 0-7.5 3.358-7.5 7.5v21.264c0 4.142 3.358 7.5 7.5 7.5s7.5-3.358 7.5-7.5v-21.264c0-4.142-3.357-7.5-7.5-7.5z"/><path d="m312.186 187.593c-4.142 0-7.5 3.358-7.5 7.5v21.264c0 4.142 3.358 7.5 7.5 7.5s7.5-3.358 7.5-7.5v-21.264c0-4.142-3.358-7.5-7.5-7.5z"/><path d="m468.958 22.841c0-12.595-10.247-22.841-22.841-22.841h-297.552c-4.142 0-7.5 3.358-7.5 7.5s3.358 7.5 7.5 7.5h297.552c4.323 0 7.841 3.518 7.841 7.841s-3.518 7.841-7.841 7.841c-6.551 0-373.546 0-380.234 0-4.323 0-7.841-3.518-7.841-7.841s3.518-7.841 7.841-7.841h47.683c4.142 0 7.5-3.358 7.5-7.5s-3.358-7.5-7.5-7.5h-47.683c-12.594 0-22.841 10.246-22.841 22.841s10.247 22.841 22.841 22.841h42.527v117.713c-9.256 8.672-14.592 20.78-14.592 33.847v.24c0 22.583 16.215 43.221 41.838 46.196 7.932 36.66 32.311 67.262 65 83.669v12.873c-28.509 16.469-26.411 15.181-27.482 16.061h-25.696c-30.873 0-55.989 25.116-55.989 55.989v92.23c0 4.142 3.358 7.5 7.5 7.5h248.111c4.142 0 7.5-3.358 7.5-7.5s-3.358-7.5-7.5-7.5h-240.611v-84.73c0-22.601 18.388-40.989 40.989-40.989h24.42c.519.598 12.435 12.059 13.004 12.609l10.886 35.248c8.205 26.563 32.401 44.421 60.211 44.421 27.798 0 52.003-17.845 60.21-44.421l10.886-35.247c.567-.547 12.491-12.016 13.005-12.609h24.421c22.601 0 40.988 18.388 40.988 40.989v84.729h-23.41c-4.142 0-7.5 3.358-7.5 7.5s3.358 7.5 7.5 7.5h30.91c4.142 0 7.5-3.358 7.5-7.5v-92.23c0-30.873-25.116-55.989-55.988-55.989h-25.697c-1.071-.88 1.035.413-27.481-16.061v-12.981c11.866-5.953 22.761-13.857 32.282-23.555 16.483-16.789 27.577-37.502 32.412-59.975 27.421-2.964 42.144-25.205 42.144-46.226v-.24c0-12.538-4.989-23.925-13.076-32.306v-37.377c0-.003 0-.006 0-.01v-81.868h26.189v72.152c-7.992 3.038-13.697 10.756-13.697 19.801v20.397c0 5.238 4.262 9.5 9.5 9.5h23.395c5.238 0 9.5-4.262 9.5-9.5v-20.397c0-9.045-5.705-16.763-13.697-19.801v-72.157c12.512-.096 22.663-10.301 22.663-22.836zm-345.548 131.17v-18.952h211.196c-13.016 10.03-29.115 15.614-45.967 15.614h-146.722c-2.476 0-5.101.183-7.554.526-.024.003-.047.008-.071.011-3.787.537-7.431 1.471-10.882 2.801zm266.696.49c-4.413-1.91-9.296-3.168-14.087-3.62-1.19-5.491-2.71-10.674-4.58-15.822h18.667zm-256.783 73.606c-15.978-3.681-24.505-17.506-24.505-30.625v-.24c0-12.887 8.256-26.831 24.5-30.606-.306 3.645-.434 7.174-.434 10.312 0 40.177-.191 43.524.43 51.011.004.05.005.099.009.148zm73.745 125.732 37.794 35.709c-3.89 3.414-13.101 11.496-17.019 14.934l-40.608-39.186zm48.929 45.895 9.566 8.395-4.173 11.021h-10.787l-4.173-11.02zm8.09 48.139c-5.333.913-10.842.913-16.175 0l3.385-13.723h9.404zm-53.966-33.162-2.853-9.24 13.113 12.654c.047.045.097.083.145.127 1.957 1.822 4.494 2.829 7.175 2.829 2.316 0 4.7-.773 6.684-2.403l3.197 8.443-3.94 15.969c-11.037-5.779-19.634-15.794-23.521-28.379zm68.237 28.38-3.942-15.98 3.195-8.436c1.986 1.634 4.377 2.407 6.69 2.407 5.491 0 6.792-2.445 20.433-15.609-3.008 9.732-6.618 27.272-26.376 37.618zm5.798-38.609-17.018-14.934c14.924-14.101 3.727-3.522 37.794-35.709l19.832 11.457zm12.188-70.89v7.724c-8.79 8.305-32.56 30.763-40.344 38.117l-40.344-38.117v-7.618c11.943 4.107 25.721 6.6 39.791 6.6 13.867.001 27.709-2.12 40.897-6.706zm-43.696-8.329c-52.063-1.341-95.206-39.903-103.37-90.252-.891-5.524-1.394-11.311-1.394-17.275v-40.787c0-3.372.17-7.047.612-11.276h140.143c25.626 0 49.899-10.774 67.039-29.732 3.008 7.291 5.287 14.958 6.681 23.448.986 6.001 1.434 12.018 1.434 17.56v40.787c.001 60.099-50.017 109.073-111.145 107.527zm150.534-127.781c0 13.142-8.639 26.993-24.829 30.645.294-3.487.441-7.275.441-10.392 0-39.389.207-43.604-.445-51.33 14.323 3.127 24.833 15.863 24.833 30.836zm-13.077-77.423c-9.303 0-255.994 0-266.695 0v-74.377h266.695zm54.887 32.473h-12.395v-14.897c0-3.417 2.78-6.197 6.197-6.197s6.197 2.78 6.197 6.197v14.897z"/></g></g></svg>