<svg id="Capa_1" enable-background="new 0 0 511.98 511.98" height="512" viewBox="0 0 511.98 511.98" width="512" xmlns="http://www.w3.org/2000/svg"><g><g><path d="m245.083 129.597c-76.142 7.501-122.498 92.423-83.337 161.274 18.594 32.691 26.342 52.212 33.634 70.198 5.394-3.515.763-2.811 100.313-2.693.001-.004.003-.008.005-.011 2.593.004 5.246.008 7.995.011 6.203-15.29 14.66-35.634 32.849-68.047 40.482-72.136-12.745-160.732-91.459-160.732z" fill="#ffe177"/><path d="m254.991 503.373c24.927-5.091 43.681-27.142 43.681-53.573v-45.514c-10.784 0-85.249 0-97.361 0v45.514c0 25.015 17.021 47.804 43.681 53.573z" fill="#7a8c98"/><path d="m288.672 404.286v45.514c0 26.431-18.754 48.482-43.681 53.573 33.938 6.931 65.68-18.981 65.68-53.573v-45.514z" fill="#596c76"/><path d="m288.672 404.286v45.514c0 26.431-18.754 48.482-43.681 53.573 33.938 6.931 65.68-18.981 65.68-53.573v-45.514z" fill="#596c76"/><g fill="#f8e883"><path d="m100.311 234.38h-48.124c-7.481 0-13.545-6.064-13.545-13.545 0-7.48 6.064-13.545 13.545-13.545h48.124c7.481 0 13.545 6.064 13.545 13.545-.001 7.481-6.065 13.545-13.545 13.545z"/><path d="m459.794 234.38h-48.124c-7.481 0-13.545-6.064-13.545-13.545 0-7.48 6.064-13.545 13.545-13.545h48.124c7.48 0 13.545 6.064 13.545 13.545-.001 7.481-6.065 13.545-13.545 13.545z"/><path d="m133.493 125.519-34.029-34.028c-5.29-5.29-5.29-13.866 0-19.155 5.29-5.29 13.866-5.29 19.155 0l34.029 34.029c5.29 5.29 5.29 13.866 0 19.155-5.29 5.289-13.866 5.289-19.155-.001z"/><path d="m359.332 106.364 34.029-34.029c5.29-5.29 13.866-5.29 19.155 0 5.29 5.29 5.29 13.866 0 19.155l-34.029 34.029c-5.29 5.29-13.866 5.29-19.155 0-5.289-5.289-5.289-13.865 0-19.155z"/><path d="m269.535 21.045v48.124c0 7.481-6.064 13.545-13.545 13.545-7.481 0-13.545-6.064-13.545-13.545v-48.124c0-7.481 6.064-13.545 13.545-13.545 7.481 0 13.545 6.064 13.545 13.545z"/></g><g><path d="m245.083 129.597c76.384 7.516 121.856 92.313 83.459 160.732-18.189 32.412-26.646 52.757-32.849 68.047 12.55.009 15.837-.613 20.908 2.693 6.317-15.589 14.663-36.389 33.94-70.739 42.23-75.25-17.058-169.44-105.458-160.733z" fill="#ffd15b"/></g><path d="m307.568 391.536c9.156 0 16.578-7.422 16.578-16.578s-7.422-16.578-16.578-16.578h-21.999c9.156 0 16.578 7.422 16.578 16.578s-7.422 16.578-16.578 16.578c9.156 0 16.578 7.423 16.578 16.578 0 9.156-7.422 16.579-16.578 16.579h21.999c9.156 0 16.578-7.422 16.578-16.579 0-9.155-7.422-16.578-16.578-16.578z" fill="#7a8c98"/><g><path d="m245.083 129.597c76.384 7.516 121.856 92.313 83.459 160.732-18.189 32.412-26.646 52.757-32.849 68.047 12.55.009 15.837-.613 20.908 2.693 6.317-15.589 14.663-36.389 33.94-70.739 42.23-75.25-17.058-169.44-105.458-160.733z" fill="#ffd15b"/></g><path d="m293.568 391.536c9.156 0 16.578-7.422 16.578-16.578s-7.422-16.578-16.578-16.578c-8.868 0-76.632 0-89.154 0-9.156 0-16.578 7.422-16.578 16.578s7.422 16.578 16.578 16.578c-9.156 0-16.578 7.423-16.578 16.578 0 9.156 7.422 16.579 16.578 16.579h89.154c9.156 0 16.578-7.422 16.578-16.579.001-9.155-7.422-16.578-16.578-16.578z" fill="#9facba"/><path d="m307.568 391.536c9.156 0 16.578-7.422 16.578-16.578s-7.422-16.578-16.578-16.578h-21.999c9.156 0 16.578 7.422 16.578 16.578s-7.422 16.578-16.578 16.578c9.156 0 16.578 7.423 16.578 16.578 0 9.156-7.422 16.579-16.578 16.579h21.999c9.156 0 16.578-7.422 16.578-16.579 0-9.155-7.422-16.578-16.578-16.578z" fill="#7a8c98"/></g><g><path d="m256.055 121.546c-35.112 0-68.378 15.704-90.679 43.965-2.565 3.252-2.01 7.968 1.242 10.534 3.251 2.566 7.969 2.01 10.533-1.242 19.068-24.165 47.795-38.257 78.903-38.257 76.397 0 125.749 82.759 87.945 150.112-16.784 29.909-25.454 49.848-31.554 64.719-1.576-.326-3.208-.497-4.879-.497-6.859 0-13.235-.004-19.211-.011v-42.673h3.088c12.45 0 22.579-10.129 22.579-22.58v-56.543c0-4.142-3.357-7.5-7.5-7.5s-7.5 3.358-7.5 7.5v28.243h-15.389c-2.2 0-4.289.966-5.714 2.642l-3.259 3.833-3.578-3.986c-1.673-1.862-4.164-2.769-6.639-2.415-1.955.279-3.698 1.312-4.88 2.844l-2.715-16.401c-1.023-6.177-8.737-8.444-12.946-3.824l-17.09 18.776h-15.997v-35.191c0-4.142-3.357-7.5-7.5-7.5s-7.5 3.358-7.5 7.5v58.939c0 12.803 10.416 23.219 23.219 23.219h3.536v44.993c-13.346.018-10.136.135-18.158.135-1.669 0-3.299.171-4.874.496-6.64-16.272-14.797-35.242-31.275-64.214-15.217-26.752-16.978-56.899-6.995-84.008 1.432-3.887-.56-8.199-4.446-9.63-3.892-1.433-8.199.56-9.63 4.446-11.389 30.933-9.549 65.697 8.032 96.607 16.656 29.283 24.591 48.105 31.208 64.387-3.79 4.256-6.099 9.859-6.099 15.992 0 6.418 2.524 12.257 6.632 16.578-4.107 4.321-6.632 10.16-6.632 16.578 0 9.473 5.501 17.683 13.475 21.611v20.077c0 34.287 27.895 62.181 62.181 62.181 14.369 0 28.386-5.018 39.467-14.128 3.2-2.631 3.661-7.357 1.03-10.557-2.63-3.2-7.358-3.66-10.556-1.03-8.404 6.91-19.038 10.715-29.941 10.715-26.016 0-47.181-21.165-47.181-47.181v-17.607h94.361v17.607c0 3.851-.464 7.68-1.38 11.379-.995 4.021 1.457 8.087 5.479 9.082 4.016.994 8.087-1.458 9.082-5.479 1.207-4.877 1.819-9.918 1.819-14.983v-20.075c7.973-3.929 13.474-12.138 13.474-21.611 0-6.418-2.524-12.257-6.632-16.578 4.107-4.321 6.632-10.16 6.632-16.578 0-6.133-2.308-11.735-6.098-15.991 5.995-14.7 14.465-34.551 31.533-64.968 43.121-76.828-12.558-172.452-101.023-172.452zm-37.019 169.205c-4.532 0-8.219-3.687-8.219-8.219v-8.748h19.313c2.111 0 4.125-.89 5.547-2.452l8.902-9.781 4.013 24.246c.534 3.227 3.098 5.736 6.336 6.2 3.223.464 6.397-1.214 7.821-4.171l4.654-9.668c1.92 2.139 3.631 4.585 7.515 4.53 2.164-.029 4.211-.993 5.612-2.642l6.572-7.731h11.921v13.301c0 4.179-3.4 7.58-7.579 7.58h-5.855c-6.745 0-12.232 5.487-12.232 12.232v45.418c-14.853-.029-26.336-.068-35.784-.089v-47.573c0-6.855-5.577-12.433-12.433-12.433zm-14.622 126.442c-4.981 0-9.078-4.051-9.078-9.079 0-5.006 4.072-9.078 9.078-9.078 4.143 0 7.5-3.358 7.5-7.5s-3.357-7.5-7.5-7.5c-5.006 0-9.078-4.072-9.078-9.078 0-3.779 2.354-7.202 5.986-8.524 3.228-.759 5.995-.554 106.246-.554 1.696 0 3.455.505 4.938 1.471 7.575 4.935 4.042 16.685-4.939 16.685-4.143 0-7.5 3.358-7.5 7.5s3.357 7.5 7.5 7.5c5.006 0 9.078 4.072 9.078 9.078 0 5.027-4.094 9.079-9.078 9.079z"/><path d="m100.311 199.791h-48.124c-11.604 0-21.045 9.44-21.045 21.044s9.44 21.045 21.045 21.045h48.124c11.604 0 21.045-9.441 21.045-21.045s-9.441-21.044-21.045-21.044zm0 27.089h-48.124c-3.333 0-6.045-2.712-6.045-6.045s2.712-6.044 6.045-6.044h48.124c3.333 0 6.045 2.711 6.045 6.044s-2.712 6.045-6.045 6.045z"/><path d="m459.794 199.791h-48.124c-11.604 0-21.045 9.44-21.045 21.044s9.44 21.045 21.045 21.045h48.124c11.604 0 21.045-9.441 21.045-21.045s-9.441-21.044-21.045-21.044zm0 27.089h-48.124c-3.333 0-6.045-2.712-6.045-6.045s2.712-6.044 6.045-6.044h48.124c3.333 0 6.045 2.711 6.045 6.044s-2.712 6.045-6.045 6.045z"/><path d="m157.952 130.822c8.222-8.223 8.225-21.536 0-29.761l-34.029-34.029c-8.223-8.223-21.535-8.226-29.764.001-8.222 8.226-8.224 21.534.001 29.761l34.029 34.029c8.222 8.224 21.536 8.226 29.763-.001zm-19.155-10.606-34.029-34.028c-2.366-2.367-2.359-6.19-.001-8.549 2.361-2.361 6.187-2.364 8.549 0l34.029 34.029c2.363 2.363 2.362 6.186 0 8.549-2.361 2.361-6.184 2.364-8.547.001 0-.001-.001-.001-.001-.002z"/><path d="m417.82 67.032c-8.223-8.223-21.539-8.226-29.763 0l-34.029 34.029c-8.221 8.222-8.227 21.535-.001 29.76 8.221 8.226 21.537 8.227 29.764.001l34.03-34.03c8.222-8.224 8.224-21.533-.001-29.76zm-10.607 19.156-34.029 34.029c-2.362 2.362-6.185 2.363-8.548 0s-2.362-6.186 0-8.549l34.029-34.029c2.36-2.361 6.188-2.361 8.548 0 2.362 2.362 2.363 6.186 0 8.549z"/><path d="m255.99 90.213c11.604 0 21.045-9.44 21.045-21.044v-48.124c0-11.604-9.44-21.045-21.045-21.045s-21.045 9.441-21.045 21.045v48.124c0 11.604 9.441 21.044 21.045 21.044zm-6.045-69.168c0-3.333 2.712-6.045 6.045-6.045s6.045 2.712 6.045 6.045v48.124c0 3.333-2.712 6.044-6.045 6.044s-6.045-2.711-6.045-6.044z"/></g></g></svg>