<svg id="_x33_0" enable-background="new 0 0 64 64" height="512" viewBox="0 0 64 64" width="512" xmlns="http://www.w3.org/2000/svg"><g><g><g><path d="m14.7 8.07-.01.01-.66.16c-1.78.45-3.03 2.05-3.03 3.88v1.88c0 .34.03.68.1 1l-.71-.68c-.91-.87-1.6-1.94-2-3.14-.26-.78-.39-1.6-.39-2.43 0-1.87.76-3.55 1.98-4.77s2.9-1.98 4.77-1.98h2.5c3.73 0 6.75 3.02 6.75 6.75 0 .83-.13 1.65-.39 2.43-.4 1.2-1.09 2.27-2 3.14l-.71.68c.07-.32.1-.66.1-1v-2.27c0-.99-.73-1.83-1.72-1.98l-2.31-.33c-.94-.13-1.74-.64-2.27-1.35z" fill="#656d78"/></g><g><path d="m62 41v4c0 .55-.45 1-1 1h-1-56-1c-.55 0-1-.45-1-1v-4c0-.55.45-1 1-1h1 12 8 10 10 8 9c.55 0 1 .45 1 1z" fill="#b27946"/></g><g><path d="m4 46v12 3c0 .55.45 1 1 1h54c.55 0 1-.45 1-1v-3-12z" fill="#d3a06c"/></g><g><path d="m60 19v16c0 .55-.45 1-1 1h-7v-2-3c0-1.66-1.34-3-3-3h-2c-1.66 0-3 1.34-3 3v3 2h-6v-18h21c.55 0 1 .45 1 1z" fill="#ccd1d9"/></g><g><path d="m56 3v6c0 .55-.45 1-1 1h-5l-3.59 3.59c-.26.26-.62.41-1 .41-.78 0-1.41-.63-1.41-1.41v-2.59h-7c-.55 0-1-.45-1-1v-6c0-.55.45-1 1-1h18c.55 0 1 .45 1 1z" fill="#e6e9ed"/></g><g><path d="m52 36v4h-8v-4-2h8z" fill="#969faa"/></g><g><path d="m52 31v3h-8v-3c0-1.66 1.34-3 3-3h2c1.66 0 3 1.34 3 3z" fill="#969faa"/></g><g><path d="m38 18v18h-4v-4-13c0-.55.45-1 1-1z" fill="#aab2bd"/></g><g><path d="m24 36h10v4h-10z" fill="#969faa"/></g><g><path d="m34 32v4h-10v-3c0-.55.45-1 1-1h3z" fill="#aab2bd"/></g><g><path d="m28 28.44v3.56h-3c-.55 0-1 .45-1 1v3 4h-8v-6l2.45-4.1 2.62-4.37 2.17-3.63c.72.23 1.4.58 2.01 1.04 1.73 1.3 2.75 3.33 2.75 5.5z" fill="#fcd770"/></g><g><path d="m23.24 21.9-2.17 3.63h-.01l-3.06-1.53-2-1 3-2 3.47.69c.26.05.52.12.77.21z" fill="#fc6e51"/></g><g><path d="m21.07 25.53-2.62 4.37-1.45-2.9 1-3 3.06 1.53z" fill="#ff826e"/></g><g><path d="m21 11.73v2.27c0 .34-.03.68-.1 1-.2.98-.68 1.86-1.36 2.54-.35.35-.75.64-1.19.87-.7.38-1.5.59-2.35.59s-1.65-.21-2.35-.59c-1.3-.69-2.25-1.93-2.55-3.41-.07-.32-.1-.66-.1-1v-1.88c0-1.83 1.25-3.43 3.03-3.88l.66-.16.01-.01c.53.71 1.33 1.22 2.27 1.35l2.31.33c.99.15 1.72.99 1.72 1.98z" fill="#f0d0b4"/></g><g><path d="m18.35 18.41.65 2.59-3 2-3-2 .65-2.59c.7.38 1.5.59 2.35.59s1.65-.21 2.35-.59z" fill="#f0d0b4"/></g><g><path d="m18.45 29.9-2.45 4.1-2.33-4.33 1.33-2.67h2z" fill="#b4dd7f"/></g><g><path d="m18 24-1 3h-2l-1-3 2-1z" fill="#a0d468"/></g><g><path d="m16 34v6h-12v-11.56c0-2.17 1.02-4.2 2.75-5.5.78-.59 1.68-1 2.64-1.21l1.94 3.6 2.34 4.34z" fill="#fcd770"/></g><g><path d="m16 23-2 1-2.67 1.33-1.94-3.6c.05-.02.09-.03.14-.04l3.47-.69z" fill="#fc6e51"/></g><g><path d="m14 24 1 3-1.33 2.67-2.34-4.34z" fill="#ff826e"/></g></g><g><path d="m61 39h-8v-2h6c1.103 0 2-.897 2-2v-16c0-1.103-.897-2-2-2h-24c-1.103 0-2 .897-2 2v12h-4v-2.561c0-2.467-1.179-4.823-3.151-6.303-.937-.702-2.037-1.194-3.183-1.423l-2.85-.57-.319-1.278c1.113-.802 1.938-1.974 2.298-3.337l.508-.484c1.025-.976 1.804-2.202 2.251-3.545.296-.886.446-1.811.446-2.747 0-4.274-3.478-7.752-7.752-7.752h-2.496c-4.274 0-7.752 3.478-7.752 7.752 0 .937.15 1.861.446 2.748.447 1.343 1.226 2.569 2.25 3.544l.509.485c.36 1.362 1.185 2.535 2.298 3.337l-.319 1.278-2.849.57c-1.146.229-2.247.721-3.183 1.423-1.973 1.479-3.152 3.836-3.152 6.302v10.561c-1.103 0-2 .897-2 2v4c0 1.103.897 2 2 2v14c0 1.103.897 2 2 2h54c1.103 0 2-.897 2-2v-14c1.103 0 2-.897 2-2v-4c0-1.103-.897-2-2-2zm-16 0v-4h6v4zm-20-2h8v2h-8zm10 0h8v2h-8zm16-4h-6v-2c0-1.103.897-2 2-2h2c1.103 0 2 .897 2 2zm8 2h-6v-4c0-2.206-1.794-4-4-4h-2c-2.206 0-4 1.794-4 4v4h-4v-16h20zm-22-16v16h-2v-16zm-4 16h-8v-2h8zm-6-6.561v2.561h-2c-1.103 0-2 .897-2 2v6h-6v-4.724l6.659-11.132c.348.167.682.361.99.592 1.472 1.105 2.351 2.863 2.351 4.703zm-8.47-.617-.45-.899.504-1.513 1.069.534zm-2.251-1.822h-.558l-.498-1.493.777-.389.777.389zm-2.863-.59.504 1.514-.286.572-.931-1.73zm2.202 2.59h.763l.93 1.859-1.266 2.116-1.252-2.325zm6.062-5.444-.997 1.667-2.694-1.347 1.221-.814zm-12.337-11.689c-.228-.682-.343-1.393-.343-2.115 0-3.172 2.58-5.752 5.752-5.752h2.496c3.172 0 5.752 2.58 5.752 5.752 0 .722-.115 1.433-.343 2.115-.163.489-.387.955-.657 1.393v-.526c0-1.483-1.107-2.76-2.575-2.97l-2.313-.331c-1.205-.171-2.112-1.217-2.112-2.433v-1h-2v1c0 .501.085.987.242 1.441-1.934.725-3.242 2.576-3.242 4.682v.137c-.27-.437-.494-.904-.657-1.393zm2.657 1.256c0-1.379.935-2.576 2.271-2.91l.084-.021c.657.642 1.513 1.085 2.473 1.223l2.313.331c.49.068.859.494.859.988v2.266c0 2.206-1.794 4-4 4s-4-1.794-4-4zm4 7.877c.576 0 1.132-.086 1.66-.239l.199.797-1.859 1.24-1.859-1.24.199-.797c.528.153 1.084.239 1.66.239zm-3.21 2.062 1.221.814-2.258 1.129-.844-1.567zm-7.79 6.377c0-1.841.879-3.599 2.353-4.703.467-.35.992-.623 1.543-.822l6.104 11.338v4.748h-10zm0 32.561v-2h54v2zm54-4h-54v-10h54zm-56-12v-4h58l.002 4z"/><path d="m39 5h2v2h-2z"/><path d="m43 5h2v2h-2z"/><path d="m47 5h2v2h-2z"/><path d="m37 11h6v1.586c0 1.331 1.083 2.414 2.414 2.414.636 0 1.258-.258 1.707-.707l3.293-3.293h4.586c1.103 0 2-.897 2-2v-6c0-1.103-.897-2-2-2h-18c-1.103 0-2 .897-2 2v6c0 1.103.897 2 2 2zm0-8h18v6h-5.414l-3.879 3.879c-.238.238-.707.045-.707-.293v-3.586h-8z"/><path d="m51 5h2v2h-2z"/></g></g></svg>