<svg id="Capa_1" enable-background="new 0 0 511.828 511.828" height="512" viewBox="0 0 511.828 511.828" width="512" xmlns="http://www.w3.org/2000/svg"><g><g><path d="m314.118 36.389c0-17.612-14.277-31.889-31.889-31.889h-56.812c-17.612 0-31.889 14.277-31.889 31.889v423.953h120.589v-423.953z" fill="#fbe88c"/><path d="m314.118 398.084v-63.584l-1.418.908c-1.859 1.191-4.021 1.824-6.229 1.824h-55.395c-8.382 0-15.177-6.795-15.177-15.177v-298.845c0-6.992 2.256-13.454 6.072-18.71h-16.554c-17.612 0-31.889 14.277-31.889 31.889v423.953h120.589v-13.179h-78.219v-49.078h78.22z" fill="#fbe372"/><g id="XMLID_189_"><g><path d="m284.123 39.628v35.93h-60.59v-35.93c0-2.83 2.29-5.13 5.13-5.13h50.33c2.83 0 5.13 2.3 5.13 5.13z" fill="#f2eae7"/><path d="m235.899 34.498h-7.236c-2.84 0-5.13 2.3-5.13 5.13v35.93h12.366z" fill="#ede2dd"/><path d="m284.123 75.558v172.67c0 2.83-2.3 5.13-5.13 5.13h-50.33c-2.84 0-5.13-2.3-5.13-5.13v-172.67z" fill="#f9f7f7"/><path d="m228.663 253.358h7.236v-177.8h-12.366v172.67c0 2.83 2.29 5.13 5.13 5.13z" fill="#f8f3f2"/></g></g><circle cx="253.824" cy="333.462" fill="#f9f7f7" r="37.582"/><path d="m253.109 371.036c19.805.368 36.194-14.588 38.108-33.805h-33.315c-12.152 0-22.002-9.851-22.002-22.002v-14.807c-12.226 6.647-20.351 19.881-19.61 34.939.963 19.585 17.213 35.311 36.819 35.675z" fill="#f2eae7"/><path d="m434.298 36.389c0-17.612-14.277-31.889-31.889-31.889h-56.812c-17.612 0-31.889 14.277-31.889 31.889v423.953h120.589v-423.953z" fill="#9de5d1"/><g id="XMLID_190_"><g><path d="m404.302 39.628v35.93h-60.59v-35.93c0-2.83 2.29-5.13 5.13-5.13h50.33c2.83 0 5.13 2.3 5.13 5.13z" fill="#f2eae7"/><path d="m356.079 34.498h-7.236c-2.84 0-5.13 2.3-5.13 5.13v35.93h12.366z" fill="#ede2dd"/><path d="m404.302 75.558v172.67c0 2.83-2.3 5.13-5.13 5.13h-50.33c-2.84 0-5.13-2.3-5.13-5.13v-172.67z" fill="#f9f7f7"/><path d="m348.843 253.358h7.236v-177.8h-12.366v172.67c-.001 2.83 2.289 5.13 5.13 5.13z" fill="#f8f3f2"/></g></g><path d="m434.298 384.804v-75.538h-72.426c-.02 0-.039 0-.059 0-3.146.007-5.734-2.458-5.734-5.604v-280.452c0-6.992 2.256-13.454 6.073-18.71h-16.554c-17.612 0-31.889 14.277-31.889 31.889v423.953h120.589v-13.179h-78.219v-62.359z" fill="#82dec5"/><circle cx="374.003" cy="339.462" fill="#f9f7f7" r="37.582"/><path d="m361.813 309.266c-2.257.005-4.22-1.265-5.153-3.142-12.024 6.268-20.238 18.84-20.238 33.338 0 20.756 16.826 37.582 37.582 37.582s37.582-16.826 37.582-37.582c0-12.373-5.981-23.347-15.208-30.195h-34.505c-.021-.001-.041-.001-.06-.001z" fill="#f2eae7"/><g><path d="m195.119 39.389c0-17.612-14.277-31.889-31.889-31.889h-56.812c-17.611 0-31.888 14.277-31.888 31.889v423.953h120.589z" fill="#ee878a"/><g id="XMLID_188_"><g><path d="m195.119 386.304v-53.464l-29.769-19.067c-4.595-2.943-9.936-4.507-15.393-4.507h-9.803c-12.843 0-23.254-10.411-23.254-23.254v-259.802c0-6.992 2.256-13.454 6.073-18.71h-16.554c-17.612 0-31.889 14.277-31.889 31.889v423.953h120.589v-13.179h-78.219v-63.859z" fill="#ec6e73"/><path d="m165.124 42.628v35.93h-60.59v-35.93c0-2.83 2.29-5.13 5.13-5.13h50.33c2.83 0 5.13 2.3 5.13 5.13z" fill="#f2eae7"/><path d="m116.9 37.498h-7.236c-2.84 0-5.13 2.3-5.13 5.13v35.93h12.366z" fill="#ede2dd"/><path d="m165.124 78.558v172.67c0 2.83-2.3 5.13-5.13 5.13h-50.33c-2.84 0-5.13-2.3-5.13-5.13v-172.67z" fill="#f9f7f7"/><path d="m109.664 256.358h7.236v-177.8h-12.366v172.67c0 2.83 2.289 5.13 5.13 5.13z" fill="#f8f3f2"/></g></g><circle cx="134.824" cy="336.462" fill="#f9f7f7" r="37.582"/><path d="m149.957 309.266h-9.803c-7.131 0-13.509-3.213-17.775-8.267-14.637 5.137-25.136 19.07-25.136 35.462 0 20.756 16.826 37.582 37.582 37.582s37.582-16.826 37.582-37.582c0-8.812-3.041-16.909-8.12-23.317-4.349-2.526-9.287-3.878-14.33-3.878z" fill="#f2eae7"/><path d="m317.815 355.882 39.449-25.267c1.375-.881 2.975-1.349 4.608-1.349h103.655c6.154 0 11.142 4.989 11.142 11.142v139.355c0 13.566-10.998 24.564-24.564 24.564h-392.382c-13.566 0-24.564-10.998-24.564-24.564v-139.354c0-6.154 4.989-11.142 11.142-11.142h103.655c1.633 0 3.232.468 4.608 1.349l39.449 25.267c1.375.881 2.975 1.349 4.608 1.349h114.586c1.633 0 3.232-.469 4.608-1.35z" fill="#b3adb5"/><path d="m119.616 480.24c-27.043 0-48.966-21.923-48.966-48.966v-102.008h-24.349c-6.154 0-11.142 4.989-11.142 11.142v139.355c0 13.566 10.998 24.564 24.564 24.564h392.381c13.407 0 24.298-10.742 24.552-24.088h-357.04z" fill="#a59ca6"/><path d="m427.467 456.662h-343.107c-2.35 0-4.255-1.905-4.255-4.255v-50.067c0-2.35 1.905-4.255 4.255-4.255h343.107c2.35 0 4.255 1.905 4.255 4.255v50.066c.001 2.351-1.905 4.256-4.255 4.256z" fill="#f9f7f7"/></g></g><g><path d="m230.25 263.858h50.328c6.965 0 12.631-5.666 12.631-12.63v-208.598c0-6.964-5.666-12.63-12.631-12.63h-50.328c-6.964 0-12.63 5.666-12.63 12.63v208.598c-.001 6.964 5.665 12.63 12.63 12.63zm2.369-218.858h45.589v26.056h-45.589zm0 41.056h45.589v162.802h-45.589z"/><path d="m350.839 263.858h50.328c6.965 0 12.631-5.666 12.631-12.63v-208.598c0-6.964-5.666-12.63-12.631-12.63h-50.328c-6.965 0-12.631 5.666-12.631 12.63v150.097c0 4.142 3.357 7.5 7.5 7.5s7.5-3.358 7.5-7.5v-106.671h45.59v162.802h-45.59v-24.169c0-4.142-3.357-7.5-7.5-7.5s-7.5 3.358-7.5 7.5v26.539c0 6.964 5.667 12.63 12.631 12.63zm2.369-192.802v-26.056h45.59v26.056z"/><path d="m109.66 263.858h50.329c6.964 0 12.63-5.666 12.63-12.63v-108.107c0-4.142-3.358-7.5-7.5-7.5s-7.5 3.358-7.5 7.5v105.737h-45.589v-162.802h45.589v25.103c0 4.142 3.358 7.5 7.5 7.5s7.5-3.358 7.5-7.5v-68.529c0-6.964-5.666-12.63-12.63-12.63h-50.329c-6.964 0-12.63 5.666-12.63 12.63v208.598c0 6.964 5.666 12.63 12.63 12.63zm2.37-218.858h45.589v26.056h-45.589z"/><path d="m427.467 390.584h-343.107c-6.482 0-11.755 5.273-11.755 11.755v50.066c0 6.482 5.273 11.755 11.755 11.755h44.908c4.142 0 7.5-3.358 7.5-7.5s-3.358-7.5-7.5-7.5h-41.664v-43.577h336.618v43.577h-262.992c-4.142 0-7.5 3.358-7.5 7.5s3.358 7.5 7.5 7.5h266.237c6.481 0 11.755-5.273 11.755-11.755v-50.065c0-6.482-5.273-11.756-11.755-11.756z"/><path d="m465.526 321.766h-21.729v-282.377c0-21.719-17.67-39.389-39.388-39.389h-56.812c-13.103 0-24.724 6.437-31.889 16.308-7.164-9.871-18.786-16.308-31.888-16.308h-56.812c-13.103 0-24.724 6.437-31.889 16.308-7.165-9.871-18.786-16.308-31.889-16.308h-56.812c-21.718 0-39.388 17.67-39.388 39.389v282.377h-20.729c-10.279 0-18.642 8.363-18.642 18.643v139.355c0 17.68 14.384 32.064 32.064 32.064h392.381c17.681 0 32.064-14.384 32.064-32.064v-139.355c0-10.28-8.363-18.643-18.642-18.643zm-117.929-306.766h56.812c13.448 0 24.389 10.941 24.389 24.389v282.377h-15.468c-5.59-15.493-20.404-26.198-37.326-26.198-21.844 0-39.621 17.735-39.695 39.562l-13.1 8.391v-304.132c-.001-13.448 10.94-24.389 24.388-24.389zm49.066 306.766h-34.791c-2.702 0-5.342.679-7.701 1.97 4.149-7.824 12.377-13.168 21.832-13.168 8.546 0 16.214 4.393 20.66 11.198zm-169.656-306.766h56.812c13.448 0 24.389 10.941 24.389 24.389v310.343h-15.832c1.79-4.561 2.735-9.453 2.735-14.465 0-21.89-17.809-39.698-39.697-39.698-21.89 0-39.698 17.808-39.698 39.698 0 5.012.948 9.903 2.737 14.465h-15.834v-310.343c0-13.448 10.941-24.389 24.388-24.389zm8.423 334.731c-3.044-4.194-4.714-9.222-4.714-14.465 0-13.618 11.08-24.698 24.698-24.698s24.697 11.08 24.697 24.698c0 5.244-1.669 10.272-4.714 14.465zm-153.4-310.342c0-13.448 10.941-24.389 24.388-24.389h56.812c13.448 0 24.389 10.941 24.389 24.389v303.492l-13.117-8.401c-.422-21.526-18.052-38.911-39.678-38.911-16.922 0-31.737 10.705-37.326 26.198h-15.468zm74.231 283.676c-1.985-.849-4.123-1.299-6.305-1.299h-35.792c4.45-6.801 12.115-11.198 20.66-11.198 9.178 0 17.181 5.046 21.437 12.497zm312.907 156.699c0 9.409-7.655 17.064-17.064 17.064h-392.381c-9.409 0-17.064-7.655-17.064-17.064v-139.355c0-2.008 1.634-3.643 3.642-3.643h103.655c.2 0 .395.057.562.165l39.448 25.267c2.588 1.658 5.58 2.534 8.654 2.534h114.586c3.072 0 6.063-.876 8.652-2.533 0 0 .001 0 .001-.001l39.447-25.266c.169-.108.364-.166.564-.166h103.654c2.009 0 3.643 1.634 3.643 3.643v139.355z"/></g></g></svg>