<svg id="Capa_1" enable-background="new 0 0 512 512" height="512" viewBox="0 0 512 512" width="512" xmlns="http://www.w3.org/2000/svg"><g><path d="m384.798 504.498h-257.596c-14.643 0-26.513-11.87-26.513-26.513v-443.97c0-14.643 11.87-26.513 26.513-26.513h257.596c14.643 0 26.513 11.87 26.513 26.513v443.97c0 14.643-11.87 26.513-26.513 26.513z" fill="#0055a3"/><path d="m380.249 442.374h-248.498v-403.81h77.656l15.531 31.062h62.124l15.531-31.062h77.656z" fill="#62dbfb"/><path d="m131.751 442.374v-403.81h18.938v-4.549c0-14.643 11.87-26.513 26.513-26.513h-50c-14.643 0-26.513 11.87-26.513 26.513v443.97c0 14.643 11.87 26.513 26.513 26.513h50c-14.643 0-26.513-11.87-26.513-26.513v-35.611z" fill="#004281"/><path d="m131.751 38.564h18.938v403.809h-18.938z" fill="#68b3f3"/><ellipse cx="256" cy="333.656" fill="#d7e4f7" rx="62.125" ry="31.316"/><path d="m256 147.029c-41.652 0-75.417 33.765-75.417 75.417 0 50.278 75.417 111.463 75.417 111.463s75.417-61.185 75.417-111.463c0-41.652-33.765-75.417-75.417-75.417zm0 118.011c-23.524 0-42.594-19.07-42.594-42.594s19.07-42.594 42.594-42.594 42.594 19.07 42.594 42.594-19.07 42.594-42.594 42.594z" fill="#f75f79"/><path d="m210.583 222.446c0-36.515 25.952-66.965 60.417-73.921-4.848-.979-9.863-1.497-15-1.497-41.652 0-75.417 33.765-75.417 75.417 0 50.278 75.417 111.463 75.417 111.463s6.182-5.018 15-13.35c-21.995-20.782-60.417-62.223-60.417-98.112z" fill="#cf3086"/><g><path d="m387.75 442.37v-403.81c0-4.143-3.358-7.5-7.5-7.5h-77.66c-2.841 0-5.438 1.605-6.708 4.146l-13.458 26.924h-52.848l-13.458-26.924c-1.27-2.541-3.867-4.146-6.708-4.146h-77.66c-4.142 0-7.5 3.357-7.5 7.5v403.81c0 4.143 3.358 7.5 7.5 7.5h107.91c4.142 0 7.5-3.357 7.5-7.5s-3.358-7.5-7.5-7.5h-100.41v-388.81h65.524l13.457 26.924c1.27 2.541 3.867 4.146 6.708 4.146h62.12c2.841 0 5.438-1.605 6.708-4.146l13.457-26.924h65.524v388.81h-100.408c-4.142 0-7.5 3.357-7.5 7.5s3.358 7.5 7.5 7.5h107.91c4.142 0 7.5-3.357 7.5-7.5z"/><path d="m411.31 231.29c-4.142 0-7.5 3.357-7.5 7.5v239.19c0 10.487-8.528 19.02-19.01 19.02h-257.6c-10.482 0-19.01-8.532-19.01-19.02v-443.96c0-10.487 8.528-19.02 19.01-19.02h112.46c4.142 0 7.5-3.357 7.5-7.5s-3.358-7.5-7.5-7.5h-112.46c-18.753 0-34.01 15.261-34.01 34.02v443.96c0 18.759 15.257 34.02 34.01 34.02h257.6c18.753 0 34.01-15.261 34.01-34.02v-239.19c0-4.143-3.358-7.5-7.5-7.5z"/><path d="m384.8 0h-112.46c-4.142 0-7.5 3.357-7.5 7.5s3.358 7.5 7.5 7.5h112.46c10.482 0 19.01 8.532 19.01 19.02v172.08c0 4.143 3.358 7.5 7.5 7.5s7.5-3.357 7.5-7.5v-172.08c0-18.759-15.257-34.02-34.01-34.02z"/><path d="m224.938 465.936c-4.142 0-7.5 3.357-7.5 7.5s3.358 7.5 7.5 7.5h62.124c4.142 0 7.5-3.357 7.5-7.5s-3.358-7.5-7.5-7.5z"/><path d="m240.737 38.564c0 4.143 3.358 7.5 7.5 7.5h15.526c4.142 0 7.5-3.357 7.5-7.5s-3.358-7.5-7.5-7.5h-15.526c-4.142 0-7.5 3.358-7.5 7.5z"/><path d="m186.38 333.66c0 30.764 46.954 38.81 69.62 38.81 22.017 0 69.62-8.112 69.62-38.81 0-12.699-9.843-23.827-26.871-30.96 19.908-22.692 40.168-52.583 40.168-80.254 0-45.721-37.196-82.918-82.917-82.918s-82.917 37.197-82.917 82.918c0 27.67 20.26 57.562 40.168 80.254-17.028 7.133-26.871 18.261-26.871 30.96zm69.62-179.132c37.45 0 67.917 30.468 67.917 67.918 0 39.131-51.8 87.506-67.919 101.61-5.203-4.548-14.12-12.662-23.812-22.883-.136-.156-.278-.305-.425-.449-20.248-21.431-43.677-51.925-43.677-78.278-.001-37.45 30.466-67.918 67.916-67.918zm-31.758 160.08c14.047 14.501 25.809 24.133 27.033 25.126 3.15 2.234 6.3 2.234 9.45 0 1.223-.992 12.986-10.625 27.033-25.126 13.841 4.6 22.862 12 22.862 19.052 0 11.239-23.359 23.81-54.62 23.81s-54.62-12.57-54.62-23.81c0-7.052 9.021-14.452 22.862-19.052z"/><path d="m256 272.54c27.622 0 50.094-22.472 50.094-50.094s-22.472-50.094-50.094-50.094-50.094 22.473-50.094 50.095 22.472 50.093 50.094 50.093zm0-85.188c19.351 0 35.094 15.743 35.094 35.095 0 19.351-15.743 35.094-35.094 35.094s-35.094-15.743-35.094-35.094c0-19.352 15.743-35.095 35.094-35.095z"/></g></g></svg>