<svg id="Capa_1" enable-background="new 0 0 512.024 512.024" height="512" viewBox="0 0 512.024 512.024" width="512" xmlns="http://www.w3.org/2000/svg"><g><g><g><path d="m227.052 199.927 5.95 6.07c6.42 6.55 6.31 17.06-.24 23.48-3.23 3.16-7.42 4.74-11.61 4.74-4.31 0-8.61-1.66-11.86-4.98l-13.62-13.89c6.42 6.55 6.32 17.06-.23 23.48-3.23 3.16-7.43 4.74-11.62 4.74-4.31 0-8.61-1.66-11.86-4.98l-11.91-12.15c6.31 6.55 6.17 16.99-.34 23.36-3.23 3.17-7.43 4.75-11.62 4.75-4.3 0-8.6-1.67-11.85-4.98l-100.49-102.54c-11.58-11.81-18.57-27.35-19.73-43.84l-9.44-11.812c-1.064-1.331-1.616-2.999-1.557-4.702l2.476-71.051c0-4.554 3.701-8.241 8.255-8.224l56.043-2.668c2.032-.097 4.009.679 5.434 2.132l21.909 22.355 2.81-.52c19.82-3.74 40.3.92 56.55 12.88l18.65 13.72 39.65 21.16c6.93 3.7 10.47 11.63 8.58 19.26-1.93 7.8-8.93 13.07-16.69 13.07-1.15 0-2.31-.12-3.48-.36-12.18-2.52-26.79-5.55-26.79-5.55l72.33 73.8c6.41 6.55 6.31 17.06-.24 23.47-3.23 3.17-7.43 4.75-11.63 4.75-4.3 0-8.58-1.66-11.83-4.97z" fill="#fff3e0"/></g><g><g id="XMLID_200_"><g><path d="m302.512 303.537c0-4.58 1.86-8.74 4.86-11.74 3.042-3.042 7.277-4.912 11.933-4.859 9.164.105 16.407 7.867 16.407 17.031v74.798 68.34c0 8.27-1.47 16.39-4.28 24.03s-6.96 14.79-12.32 21.09v5.815c0 3.51-2.845 6.355-6.355 6.355h-98.43c-3.51 0-6.355-2.845-6.355-6.355v-8.325c0-.89-.22-1.75-.63-2.52-.41-.76-1-1.42-1.74-1.92-16.77-11.2-28.14-28.87-31.37-48.78l-3.72-22.86-13.51-42.86c-.54-1.7-.79-3.44-.79-5.16 0-5.83 2.98-11.42 8.15-14.6 7.86-4.85 18.14-2.63 23.3 5.04 6.94 10.32 15.25 22.71 15.25 22.71v-103.33c0-4.58 1.86-8.74 4.86-11.74s7.16-4.86 11.74-4.86c9.17 0 16.6 7.43 16.6 16.6v-8.088c0-9.164 7.243-16.927 16.407-17.031 4.656-.053 8.891 1.817 11.933 4.859 3 3 4.86 7.16 4.86 11.74v19.45c0-9.17 7.43-16.6 16.6-16.6 4.58 0 8.74 1.86 11.74 4.86 3 3.01 4.86 7.15 4.86 11.74z" fill="#fff3e0"/></g></g><g><path d="m226.446 483.861c0-.89-.22-1.75-.63-2.52-.41-.76-1-1.42-1.74-1.92-16.77-11.2-28.14-28.87-31.37-48.78l-3.72-22.86-13.51-42.86c-.54-1.7-.79-3.44-.79-5.16 0-3.835 1.303-7.569 3.657-10.579-4.55-1.365-9.637-.845-13.981 1.835-5.17 3.18-8.15 8.77-8.15 14.6 0 1.72.25 3.46.79 5.16l13.51 42.86 3.72 22.86c3.23 19.91 14.6 37.58 31.37 48.78.74.5 1.33 1.16 1.74 1.92.41.77.63 1.63.63 2.52v8.325c0 3.51 2.845 6.355 6.355 6.355h12.119z" fill="#ffe6c6"/></g></g><g id="XMLID_201_" fill="#ffe6c6"><path d="m317.382 303.537c0-4.58 1.86-8.74 4.86-11.74 1.249-1.249 2.686-2.259 4.283-3.061-2.239-1.125-4.736-1.799-7.413-1.799-4.58 0-8.74 1.86-11.74 4.86s-4.86 7.16-4.86 11.74v75.23c8.212 0 14.869-6.657 14.869-14.869v-60.361z"/><g id="XMLID_203_"><path d="m284.129 288.249c0-7.231 4.628-13.362 11.077-15.64-2.916-1.971-6.498-3.044-10.328-2.811-8.822.537-15.566 8.133-15.566 16.972v91.997c8.183 0 14.816-6.633 14.816-14.816v-75.702z"/><g id="XMLID_206_"><path d="m252.059 268.604c0-6.88 4.191-12.786 10.153-15.304-2.902-2.025-6.488-3.152-10.332-2.962-8.909.44-15.767 8.091-15.767 17.011v111.418c8.807 0 15.947-7.14 15.947-15.947v-94.216z"/><path d="m217.512 272.917c0-4.58 1.86-8.74 4.86-11.74.596-.595 1.258-1.136 1.939-1.636-1.517-.457-3.133-.704-4.799-.704-4.58 0-8.74 1.86-11.74 4.86s-4.86 7.16-4.86 11.74v103.33c8.063 0 14.6-6.537 14.6-14.6z"/></g></g></g><g><g id="XMLID_211_"><g><path d="m156.221 241.938-100.49-102.54c-10.306-10.51-16.976-23.975-19.137-38.434-.556-3.722-2.057-7.238-4.406-10.178l-5.626-7.041c-1.064-1.331-1.616-2.999-1.557-4.702l2.476-71.051c0-.394.037-.778.091-1.157l-11.815.562c-4.554-.017-8.255 3.67-8.255 8.224l-2.476 71.052c-.059 1.703.493 3.371 1.556 4.702l9.44 11.812c1.16 16.49 8.15 32.03 19.73 43.84l100.49 102.54c3.25 3.31 7.55 4.98 11.85 4.98 4.19 0 8.39-1.58 11.62-4.75 1.18-1.155 2.144-2.446 2.905-3.821-2.342-.815-4.543-2.151-6.396-4.038z" fill="#ffe6c6"/></g></g><g id="XMLID_207_"><g><path d="m321.312 227.167-6.09 5.96c-6.55 6.42-17.06 6.32-23.47-.23-3.17-3.23-4.75-7.43-4.75-11.62 0-4.31 1.67-8.61 4.98-11.86l13.85-13.57c-6.54 6.38-17.02 6.26-23.43-.28-3.17-3.23-4.74-7.42-4.74-11.61 0-4.3 1.66-8.61 4.98-11.86l12.26-12.02c-6.55 6.42-17.06 6.31-23.48-.23-3.17-3.23-4.74-7.43-4.74-11.62 0-4.3 1.66-8.61 4.98-11.86l102.53-100.49c11.81-11.57 27.35-18.57 43.85-19.73l15.687-11.765c1.431-1.073 3.2-1.598 4.985-1.479l67.153 4.474c2.107.14 3.745 1.891 3.745 4.002v67.893l-15.569 18.004c-1.28 1.25-1.84 3.05-1.51 4.8.84 4.47 1.26 8.98 1.26 13.47 0 15.39-4.89 30.51-14.14 43.08l-13.72 18.65-21.16 39.66c-3.7 6.93-11.63 10.46-19.26 8.57-7.81-1.93-13.07-8.92-13.07-16.67 0-1.15.12-2.32.36-3.49 2.51-12.19 5.54-26.8 5.54-26.8l-73.79 72.33c-6.55 6.42-17.06 6.31-23.48-.24-3.17-3.23-4.74-7.42-4.74-11.61-.001-4.299 1.659-8.609 4.979-11.859z" fill="#fff3e0"/></g><g><path d="m275.8 160.446c0-4.3 1.66-8.61 4.98-11.86l102.53-100.49c10.94-10.718 25.082-17.514 40.222-19.379 2.437-.3 4.76-1.2 6.724-2.673l5.33-3.997c6.113-4.585 13.676-6.809 21.298-6.263l52.728 2.306v-7.053c0-1.918-1.487-3.508-3.401-3.635l-67.943-4.527c-1.497-.1-2.98.34-4.18 1.24l-16.045 12.033c-16.5 1.16-32.04 8.16-43.85 19.73l-102.53 100.49c-3.32 3.25-4.98 7.56-4.98 11.86 0 4.19 1.57 8.39 4.74 11.62 1.374 1.4 2.935 2.504 4.604 3.314-.146-.895-.227-1.814-.227-2.716z" fill="#ffe6c6"/></g><g id="XMLID_208_"><path d="m329.119 248.108c0-4.3 1.66-8.61 4.98-11.86l60.904-59.691c6.071-5.95 6.12-15.71.109-21.72l-73.8 72.33c-3.32 3.25-4.98 7.56-4.98 11.86 0 4.19 1.57 8.38 4.74 11.61 2.727 2.782 6.193 4.39 9.779 4.842-1.15-2.318-1.732-4.842-1.732-7.371z" fill="#ffe6c6"/><g><g id="XMLID_210_" fill="#ffe6c6"><path d="m297.01 231.158c0-4.31 1.67-8.61 4.98-11.86l69.703-68.309c5.543-5.432 5.624-14.332.179-19.863l-79.89 78.29c-3.31 3.25-4.98 7.55-4.98 11.86 0 4.19 1.58 8.39 4.75 11.62 1.827 1.866 3.993 3.212 6.299 4.029-.684-1.853-1.041-3.819-1.041-5.767z"/><path d="m287.673 193.064c0-4.3 1.66-8.61 4.98-11.86l55.792-54.684c5.328-5.223 5.412-13.777.187-19.103l-65.99 64.68c-3.32 3.25-4.98 7.56-4.98 11.86 0 4.19 1.57 8.38 4.74 11.61 1.928 1.967 4.227 3.342 6.673 4.145-.925-2.117-1.402-4.379-1.402-6.648z"/></g></g></g></g></g><g fill="#ffe6c6"><path d="m425.771 209.533c0-1.15.12-2.32.36-3.49.701-3.404 1.442-6.997 2.146-10.408 1.46-7.072-3.083-13.99-10.151-15.464l-.114-.024c-.86 4.12-3.2 15.44-5.21 25.2-.24 1.17-.36 2.34-.36 3.49 0 7.75 5.26 14.74 13.07 16.67 3.398.842 6.865.605 9.982-.525-5.917-2.855-9.723-8.874-9.723-15.449z"/><path d="m210.922 98.646c-1.15 0-2.31-.12-3.48-.36-4.678-.969-9.712-2.012-14.139-2.929-5.774-1.196-11.523 2.136-13.361 7.738l-.03.091c4.01.83 15.45 3.2 25.3 5.24 1.17.24 2.33.36 3.48.36 7.76 0 14.76-5.27 16.69-13.07.472-1.903.605-3.826.432-5.696-3.042 5.287-8.722 8.626-14.892 8.626z"/><path d="m194.352 235.83c-4.31 0-8.61-1.66-11.86-4.98l-13.62-13.89-43.001-43.878c-4.996-5.098-13.191-5.139-18.238-.092l50.689 51.721 13.62 13.89c3.25 3.32 7.55 4.98 11.86 4.98 4.19 0 8.38-1.58 11.61-4.74 1.073-1.052 1.978-2.184 2.705-3.42-1.232.286-2.509.409-3.765.409z"/><path d="m221.857 223.875-69.177-70.582c-4.986-5.087-13.093-5.343-18.39-.581l20.073 20.485 41.31 42.15 13.62 13.89c3.25 3.32 7.55 4.98 11.86 4.98 4.468 0 8.935-1.796 12.239-5.389 0-.001 0 0 0-.001-4.188-.091-8.377-1.726-11.535-4.952z"/><path d="m250.071 199.712c-4.3 0-8.58-1.66-11.83-4.97l-.01-.01-61.972-63.232c-4.58-4.673-12.005-4.978-16.953-.696l67.737 69.113.01.01c3.25 3.31 7.53 4.97 11.83 4.97 4.2 0 8.4-1.58 11.63-4.75.156-.153.291-.319.44-.477-.294.016-.588.042-.882.042z"/></g></g><g><path d="m335.713 417.261c-4.143 0-7.5 3.358-7.5 7.5v22.341c0 14.738-5.26 29.036-14.812 40.261-1.154 1.356-1.788 3.079-1.788 4.86v12.172c0 4.142 3.357 7.5 7.5 7.5s7.5-3.358 7.5-7.5v-9.493c10.725-13.582 16.6-30.445 16.6-47.8v-22.341c0-4.142-3.358-7.5-7.5-7.5z"/><path d="m319.113 279.434c-3.414 0-6.662.718-9.608 2.004-2.281-10.933-11.992-19.171-23.592-19.171-3.282 0-6.412.662-9.267 1.855-1.39-11.976-11.59-21.305-23.932-21.305-8.864 0-16.62 4.813-20.806 11.96-3.624-2.182-7.864-3.44-12.394-3.44-13.289 0-24.1 10.811-24.1 24.1v78.71c-.516-.767-1.028-1.529-1.533-2.28-7.43-11.048-22.128-14.227-33.46-7.234-9.621 5.936-13.968 17.612-10.57 28.394l13.346 42.35 3.629 22.322c3.496 21.501 15.734 40.813 33.647 53.162v13.533c0 4.142 3.358 7.5 7.5 7.5s7.5-3.358 7.5-7.5v-14.678c0-4.297-2.133-8.288-5.708-10.676-14.988-10.012-25.242-25.958-28.134-43.749l-3.716-22.856c-.058-.355-.141-.707-.25-1.051l-13.508-42.867c-1.331-4.222.371-8.795 4.139-11.119 4.451-2.744 10.221-1.498 13.137 2.838 6.941 10.323 15.251 22.71 15.251 22.711 1.839 2.742 5.256 3.955 8.412 2.997 3.158-.961 5.316-3.875 5.316-7.175v-103.332c0-5.018 4.082-9.1 9.1-9.1s9.1 4.082 9.1 9.1v103.333c0 4.142 3.358 7.5 7.5 7.5s7.5-3.358 7.5-7.5v-111.853c0-5.018 4.082-9.1 9.1-9.1s9.1 4.082 9.1 9.1v111.854c0 4.142 3.357 7.5 7.5 7.5s7.5-3.358 7.5-7.5v-92.404c0-5.018 4.082-9.1 9.1-9.1 5.019 0 9.101 4.083 9.101 9.1v92.404c0 4.142 3.357 7.5 7.5 7.5s7.5-3.358 7.5-7.5v-75.256c.011-5.009 4.088-9.08 9.1-9.08 5.018 0 9.1 4.082 9.1 9.1v88.909c0 4.142 3.357 7.5 7.5 7.5s7.5-3.358 7.5-7.5v-88.909c0-13.29-10.812-24.101-24.1-24.101z"/><path d="m170.416 246.999c3.864 2.597 8.4 4.019 13.163 4.066.083.001.166.001.249.001 6.344 0 12.325-2.441 16.862-6.888 2.346-2.3 4.117-4.967 5.32-7.82 4.396 3.556 9.761 5.35 15.138 5.35 6.089 0 12.185-2.288 16.867-6.877 6.327-6.201 8.479-15.058 6.472-23.089 4.217-.998 8.099-3.123 11.274-6.235 4.598-4.506 7.165-10.532 7.23-16.969.064-6.438-2.381-12.514-6.887-17.111l-55.094-56.214c.905.187 1.804.373 2.69.555 13.036 2.691 25.759-5.327 28.96-18.254 2.716-10.974-2.352-22.355-12.326-27.677l-39.174-20.903-18.216-13.402c-17.546-12.909-39.804-18.132-61.242-14.416l-18.363-18.736c-2.899-2.959-7.648-3.005-10.606-.107-2.958 2.899-3.006 7.648-.107 10.606l21.162 21.592c1.753 1.789 4.283 2.587 6.746 2.121l2.806-.529c17.713-3.341 36.197.87 50.715 11.551l18.652 13.723c.291.214.596.406.914.576l39.653 21.159c3.906 2.084 5.891 6.542 4.827 10.839-1.256 5.075-6.25 8.221-11.369 7.168-12.183-2.513-26.788-5.543-26.789-5.544-3.23-.67-6.522.851-8.105 3.748s-1.085 6.488 1.226 8.845l72.33 73.799c1.701 1.736 2.625 4.03 2.6 6.46-.024 2.43-.994 4.706-2.73 6.408-1.736 1.701-4.01 2.667-6.46 2.6-2.43-.024-4.706-.993-6.406-2.729l-72.33-73.8c-2.899-2.959-7.648-3.006-10.606-.107s-3.006 7.648-.107 10.606l78.293 79.884c3.512 3.584 3.454 9.357-.129 12.869-3.584 3.512-9.357 3.454-12.869-.129l-78.293-79.884c-2.899-2.958-7.648-3.007-10.606-.107-2.958 2.899-3.006 7.648-.107 10.606l64.681 65.996c3.51 3.584 3.451 9.355-.131 12.866-1.736 1.701-4.031 2.633-6.461 2.601-2.431-.024-4.706-.994-6.407-2.729l-64.679-65.994c-2.899-2.959-7.648-3.006-10.606-.107s-3.006 7.648-.107 10.606l52.663 53.733c3.512 3.583 3.454 9.356-.129 12.869-3.583 3.511-9.356 3.453-12.869-.129l-62.299-63.565c-2.899-2.959-7.648-3.006-10.606-.107s-3.006 7.648-.107 10.606l62.3 63.566c4.712 4.808 10.96 7.219 17.214 7.219 6.089 0 12.185-2.288 16.867-6.877 2.434-2.391 4.245-5.179 5.448-8.159z"/><path d="m41.104 141.78c-10.316-10.525-16.568-24.419-17.603-39.121-.125-1.776-.878-3.451-2.125-4.723l-8.52-8.692c-2.899-2.958-7.647-3.006-10.606-.106-2.958 2.899-3.006 7.648-.106 10.606l6.644 6.778c1.847 17.207 9.455 33.363 21.604 45.757l15.475 15.79c1.469 1.499 3.412 2.25 5.357 2.25 1.894 0 3.79-.713 5.249-2.144 2.958-2.899 3.006-7.647.107-10.606z"/><path d="m509.88 81.753c-2.9-2.959-7.647-3.005-10.606-.107l-10.483 10.274c-3.069 3.009-4.426 7.327-3.629 11.549 3.34 17.712-.871 36.197-11.552 50.715l-13.723 18.652c-.214.291-.406.596-.576.914l-21.157 39.652c-2.086 3.907-6.547 5.892-10.84 4.828-5.075-1.256-8.225-6.25-7.168-11.369 2.514-12.183 5.544-26.788 5.544-26.789.671-3.232-.851-6.522-3.748-8.105-2.895-1.582-6.488-1.085-8.846 1.226l-34.652 33.962c-2.958 2.899-3.006 7.648-.106 10.606 2.9 2.959 7.647 3.006 10.606.107l17.066-16.727c-.188.905-.372 1.803-.556 2.689-2.689 13.04 5.329 25.761 18.255 28.96 1.981.49 3.975.727 5.943.727 8.94 0 17.372-4.88 21.734-13.053l20.903-39.175 13.401-18.215c12.909-17.545 18.134-39.803 14.417-61.243l9.665-9.472c2.96-2.899 3.008-7.648.108-10.606z"/><path d="m355.544 229.598-16.246 15.923c-1.735 1.702-4.009 2.6-6.461 2.6-2.431-.024-4.706-.994-6.407-2.73-3.51-3.582-3.454-9.351.125-12.864l73.803-72.334c2.958-2.899 3.006-7.648.106-10.606-2.899-2.959-7.648-3.006-10.606-.107l-73.799 72.329c-.002.002-.003.003-.005.005l-6.08 5.959c-3.582 3.512-9.354 3.455-12.868-.129-1.701-1.736-2.625-4.031-2.601-6.461s.994-4.706 2.73-6.407l79.884-78.293c2.958-2.899 3.006-7.648.106-10.606-2.9-2.959-7.648-3.006-10.606-.107l-65.993 64.679c-3.581 3.512-9.354 3.455-12.868-.129-1.701-1.736-2.625-4.031-2.601-6.461s.994-4.706 2.73-6.407l65.993-64.679c2.958-2.899 3.006-7.648.106-10.606-2.899-2.959-7.647-3.006-10.606-.107l-53.742 52.672c-3.584 3.502-9.349 3.442-12.859-.138-3.512-3.584-3.454-9.357.129-12.869l102.536-100.492c10.525-10.316 24.419-16.567 39.12-17.603 1.777-.125 3.451-.878 4.723-2.125l8.693-8.52c2.959-2.899 3.007-7.647.107-10.606-2.898-2.958-7.647-3.007-10.605-.107l-6.78 6.644c-17.206 1.847-33.362 9.455-45.758 21.603l-102.534 100.494c-9.489 9.301-9.643 24.589-.342 34.08 2.389 2.438 5.175 4.254 8.154 5.457-2.595 3.863-4.016 8.397-4.063 13.158-.064 6.437 2.381 12.514 6.887 17.111 2.298 2.345 4.965 4.11 7.815 5.312-3.413 4.208-5.299 9.403-5.354 14.901-.064 6.437 2.381 12.514 6.887 17.111 4.713 4.809 10.96 7.219 17.214 7.219 1.988 0 3.971-.269 5.911-.757.976 4.123 3.022 8.044 6.198 11.284 4.506 4.598 10.532 7.166 16.97 7.23.083.001.166.001.249.001 6.345 0 12.324-2.441 16.862-6.888l16.246-15.923c2.958-2.899 3.006-7.648.106-10.606-2.898-2.956-7.646-3.005-10.606-.105z"/></g></g></svg>