<svg height="512pt" viewBox="0 -48 512 512" width="512pt" xmlns="http://www.w3.org/2000/svg"><path d="m486.5 357.886719h-71c-1.65625 0-3-1.339844-3-3v-219h77v219c0 1.660156-1.34375 3-3 3zm0 0" fill="#f2d67c"/><path d="m451 357.886719h35.5c1.65625 0 3-1.339844 3-3v-219h-38.5zm0 0" fill="#e2b061"/><path d="m489.5 354.953125c0 1.921875-.550781 3.792969-1.578125 5.402344l-10.070313 15.699219-18.429687 28.71875c-3.941406 6.132812-12.902344 6.132812-16.84375 0l-18.429687-28.71875-10.070313-15.699219c-1.027344-1.609375-1.578125-3.480469-1.578125-5.402344 0-6.097656 2.46875-11.609375 6.460938-15.609375 4-3.988281 9.519531-6.457031 15.609374-6.457031h32.859376c12.191406 0 22.070312 9.878906 22.070312 22.066406zm0 0" fill="#f7e1aa"/><path d="m477.851562 376.054688-18.429687 28.71875c-3.941406 6.132812-12.902344 6.132812-16.84375 0l-18.429687-28.71875zm0 0" fill="#747a89"/><path d="m477.851562 376.054688-18.429687 28.71875c-3.941406 6.132812-12.902344 6.132812-16.84375 0l-6.578125-10.25 11.851562-18.46875zm0 0" fill="#525663"/><path d="m489.5 354.953125c0 1.921875-.550781 3.792969-1.578125 5.402344l-10.070313 15.699219h-30l10.070313-15.699219c1.027344-1.609375 1.578125-3.480469 1.578125-5.402344 0-12.1875-9.878906-22.066406-22.070312-22.066406h30c12.191406 0 22.070312 9.878906 22.070312 22.066406zm0 0" fill="#eabf68"/><path d="m489.5 125.886719h-77v-50c0-8.28125 6.714844-15 15-15h47c8.285156 0 15 6.71875 15 15zm0 0" fill="#ea9292"/><path d="m489.5 75.886719v40h-30v-40c0-8.277344-6.71875-15-15-15h30c8.28125 0 15 6.722656 15 15zm0 0" fill="#e56363"/><path d="m494.5 145.886719h-87c-5.523438 0-10-4.476563-10-10v-10c0-5.523438 4.476562-10 10-10h87c5.523438 0 10 4.476562 10 10v10c0 5.523437-4.476562 10-10 10zm0 0" fill="#d8d8d8"/><path d="m504.5 125.886719v10c0 5.53125-4.480469 10-10 10h-30c5.519531 0 10-4.46875 10-10v-10c0-5.519531-4.480469-10-10-10h30c5.519531 0 10 4.480469 10 10zm0 0" fill="#afafaf"/><path d="m7.65625 354.371094c0 28.996094 23.503906 52.5 52.5 52.5l292.34375.015625c8.285156 0 15-6.714844 15-15v-316c0-8.28125-6.714844-15-15-15h-344.84375zm0 0" fill="#bedeed"/><path d="m112.5 353.277344-.160156-293.359375c0-28.949219-23.46875-52.417969-52.421875-52.417969-28.949219 0-52.417969 23.46875-52.417969 52.417969l.160156 293.359375v-.0625c0-28.882813 23.664063-52.292969 52.542969-52.292969 28.882813 0 52.296875 23.410156 52.296875 52.292969" fill="#aac9e2"/><path d="m367.5 75.886719v316c0 8.292969-6.71875 15-15 15h-29.960938c8.261719-.019531 14.960938-6.71875 14.960938-15v-316c0-8.277344-6.71875-15-15-15h30c8.28125 0 15 6.722656 15 15zm0 0" fill="#8fbcd8"/><path d="m206.5 354.886719h-59c-2.761719 0-5-2.238281-5-5v-71c0-2.757813 2.238281-5 5-5h59c2.761719 0 5 2.242187 5 5v71c0 2.761719-2.238281 5-5 5zm0 0" fill="#fff"/><path d="m332.5 243.886719h-185c-2.761719 0-5-2.238281-5-5v-118c0-2.757813 2.238281-5 5-5h185c2.761719 0 5 2.242187 5 5v118c0 2.761719-2.238281 5-5 5zm0 0" fill="#fff"/><path d="m497 108.589844v-32.699219c0-12.40625-10.09375-22.5-22.5-22.5h-47c-12.40625 0-22.5 10.09375-22.5 22.5v32.699219c-8.464844 1.21875-15 8.5-15 17.300781v10c0 8.796875 6.535156 16.078125 15 17.296875v200.914062c0 .097657.011719.191407.015625.289063-.003906.1875-.015625.375-.015625.566406 0 3.355469.957031 6.625 2.769531 9.449219l28.5 44.417969c3.234375 5.039062 8.742188 8.046875 14.730469 8.046875s11.492188-3.007813 14.730469-8.046875l28.5-44.417969c1.8125-2.824219 2.769531-6.09375 2.769531-9.449219 0-.117187-.007812-.230469-.007812-.347656 0-.054687.007812-.113281.007812-.171875v-201.25c8.464844-1.21875 15-8.5 15-17.296875v-10c0-8.800781-6.535156-16.082031-15-17.300781zm-69.5-40.199219h47c4.136719 0 7.5 3.363281 7.5 7.5v32.5h-62v-32.5c0-4.136719 3.363281-7.5 7.5-7.5zm54.5 85v175.851563c-4.304688-2.449219-9.273438-3.851563-14.566406-3.851563h-8.933594v-144.5c0-4.144531-3.359375-7.5-7.5-7.5s-7.5 3.355469-7.5 7.5v144.5h-8.933594c-5.292968 0-10.261718 1.40625-14.566406 3.851563v-175.851563zm-61.605469 202.917969c-.257812-.40625-.394531-.871094-.394531-1.351563 0-8.03125 6.535156-14.566406 14.566406-14.566406h32.867188c8.03125 0 14.566406 6.535156 14.566406 14.566406 0 .480469-.136719.945313-.398438 1.351563l-7.859374 12.246094h-45.488282zm32.710938 44.414062c-.644531 1-1.59375 1.148438-2.105469 1.148438s-1.460938-.148438-2.105469-1.148438l-11.015625-17.167968h26.238282zm43.894531-264.832031c0 1.378906-1.121094 2.5-2.5 2.5h-87c-1.378906 0-2.5-1.121094-2.5-2.5v-10c0-1.378906 1.121094-2.5 2.5-2.5h87c1.378906 0 2.5 1.121094 2.5 2.5zm0 0"/><path d="m352.5 53.390625h-233.023438c-3.265624-29.980469-28.722656-53.390625-59.554687-53.390625-33.042969 0-59.921875 26.878906-59.921875 59.921875l.03125 55.972656c0 4.140625 3.359375 7.496094 7.5 7.496094h.003906c4.140625-.003906 7.5-3.363281 7.496094-7.503906l-.03125-55.96875c0-24.769531 20.152344-44.917969 44.917969-44.917969 24.769531 0 44.921875 20.148438 44.921875 44.921875l.136718 253.722656c-10.960937-12.390625-26.964843-20.222656-44.773437-20.222656-17.933594 0-34.054687 7.867187-45.066406 20.335937l-.105469-162.875c-.003906-4.140624-3.359375-7.492187-7.5-7.492187h-.003906c-4.144532 0-7.5000002 3.359375-7.496094 7.503906l.128906 202.386719c0 .171875.015625.335938.027344.5-.015625.195312-.03125.394531-.03125.59375 0 33.082031 26.914062 60 60 60l292.34375.015625c12.40625 0 22.5-10.09375 22.5-22.5v-316c0-12.40625-10.09375-22.5-22.5-22.5zm7.5 338.5c0 4.132813-3.363281 7.5-7.5 7.5l-292.34375-.019531c-24.8125 0-45-20.183594-45-45 0-.183594-.015625-.363282-.027344-.546875.015625-.179688.03125-.363281.03125-.550781v-.039063c0-.007813 0-.011719 0-.019531 0-24.699219 20.207032-44.792969 45.042969-44.792969 24.699219 0 44.792969 20.09375 44.796875 44.792969v.066406c0 4.140625 3.359375 7.496094 7.5 7.496094h.003906c4.140625-.003906 7.5-3.363282 7.496094-7.503906v-.058594l-.15625-284.828125h232.65625c4.136719 0 7.5 3.367187 7.5 7.5zm0 0"/><path d="m332.5 108.390625h-185c-6.894531 0-12.5 5.605469-12.5 12.5v118c0 6.890625 5.605469 12.5 12.5 12.5h185c6.894531 0 12.5-5.609375 12.5-12.5v-118c0-6.894531-5.605469-12.5-12.5-12.5zm-182.5 21.390625 76.332031 50.109375-76.332031 50.105469zm17.59375-6.390625h144.8125l-72.40625 47.527344zm72.40625 65.46875 72.40625 47.53125h-144.8125zm13.667969-8.96875 76.332031-50.109375v100.210938zm0 0"/><path d="m206.5 266.390625h-59c-6.894531 0-12.5 5.605469-12.5 12.5v71c0 6.890625 5.605469 12.5 12.5 12.5h59c6.894531 0 12.5-5.609375 12.5-12.5v-71c0-6.894531-5.605469-12.5-12.5-12.5zm-2.5 81h-54v-66h54zm0 0"/><path d="m337.5 276.890625h-96c-4.140625 0-7.5 3.355469-7.5 7.5 0 4.140625 3.359375 7.5 7.5 7.5h96c4.140625 0 7.5-3.359375 7.5-7.5 0-4.144531-3.359375-7.5-7.5-7.5zm0 0"/><path d="m337.5 306.890625h-96c-4.140625 0-7.5 3.355469-7.5 7.5 0 4.140625 3.359375 7.5 7.5 7.5h96c4.140625 0 7.5-3.359375 7.5-7.5 0-4.144531-3.359375-7.5-7.5-7.5zm0 0"/><path d="m307.5 336.890625h-66c-4.140625 0-7.5 3.355469-7.5 7.5 0 4.140625 3.359375 7.5 7.5 7.5h66c4.140625 0 7.5-3.359375 7.5-7.5 0-4.144531-3.359375-7.5-7.5-7.5zm0 0"/></svg>