<svg height="480pt" viewBox="0 1 480 479" width="480pt" xmlns="http://www.w3.org/2000/svg"><path d="m304 440.5h-128v-32h-147.503906c-4.929688 0-9.582032 2.265625-12.613282 6.152344-3.035156 3.882812-4.109374 8.945312-2.914062 13.726562l8 32c1.78125 7.125 8.183594 12.125 15.527344 12.121094h407.007812c7.34375.003906 13.746094-4.996094 15.527344-12.121094l8-32c1.195312-4.78125.121094-9.84375-2.914062-13.726562-3.03125-3.886719-7.683594-6.152344-12.613282-6.152344h-147.503906zm0 0" fill="#939598"/><path d="m434.800781 8.5h-389.601562c-20.546875-.007812-37.207031 16.652344-37.199219 37.199219v293.601562c-.007812 20.546875 16.652344 37.207031 37.199219 37.199219h389.601562c20.546875.007812 37.207031-16.652344 37.199219-37.199219v-293.601562c.007812-20.546875-16.652344-37.207031-37.199219-37.199219zm13.199219 72v259.3125c0 7.007812-5.679688 12.6875-12.6875 12.6875h-390.625c-7.007812 0-12.6875-5.679688-12.6875-12.6875v-294.625c0-7.007812 5.679688-12.6875 12.6875-12.6875h390.625c7.007812 0 12.6875 5.679688 12.6875 12.6875zm0 0" fill="#939598"/><path d="m32 339.8125c0 7.007812 5.679688 12.6875 12.6875 12.6875h390.625c7.007812 0 12.6875-5.679688 12.6875-12.6875v-259.3125h-416zm270.238281-85.074219c-.636719.640625-1.199219 1.203125-1.839843 1.761719-33.90625 32-86.890626 32-120.796876 0-.640624-.558594-1.203124-1.121094-1.839843-1.761719-6.523438-6.515625-11.976563-14.023437-16.160157-22.238281 4.183594 8.214844 9.636719 15.722656 16.160157 22.238281.636719.640625 1.199219 1.203125 1.839843 1.761719 33.882813-32.0625 86.914063-32.0625 120.796876 0 .640624-.558594 1.203124-1.121094 1.839843-1.761719 6.5-6.539062 11.949219-14.039062 16.160157-22.238281-4.210938 8.199219-9.660157 15.699219-16.160157 22.238281zm-94.238281-86.238281.960938 2.878906 7.039062 21.121094 8 24 9.601562-24 6.398438-16 6.398438 16 9.601562 24 16-48-16 48-9.601562-24-6.398438-16-6.398438 16-9.601562 24-8-24-7.039062-21.121094zm118.960938 10.558594 1.039062-2.558594 16 40 16-48-16 48-16-40-1.039062 2.558594-5.359376 13.441406-9.601562 24-16-48 16 48 9.601562-24zm-149.199219-48.796875c.636719-.640625 1.199219-1.203125 1.839843-1.761719 33.90625-32 86.890626-32 120.796876 0 .640624.558594 1.203124 1.121094 1.839843 1.761719 6.5 6.539062 11.949219 14.039062 16.160157 22.238281-4.210938-8.199219-9.660157-15.699219-16.160157-22.238281-.636719-.640625-1.199219-1.203125-1.839843-1.761719-9.371094 8.847656-20.566407 15.535156-32.796876 19.601562-17.9375 5.839844-37.265624 5.839844-55.203124 0-12.230469-4.066406-23.425782-10.753906-32.796876-19.601562-.640624.558594-1.203124 1.121094-1.839843 1.761719-6.5 6.539062-11.949219 14.039062-16.160157 22.238281 4.210938-8.199219 9.660157-15.699219 16.160157-22.238281zm-41.761719 86.238281 16-40 1.039062 2.558594 5.359376 13.441406 9.601562 24 16-48-16 48-9.601562-24-5.359376-13.441406-1.039062-2.558594-16 40-16-48zm0 0" fill="#cce2fc"/><path d="m435.3125 32.5h-390.625c-7.007812 0-12.6875 5.679688-12.6875 12.6875v35.3125h416v-35.3125c0-7.007812-5.679688-12.6875-12.6875-12.6875zm-27.3125 24" fill="#939598"/><path d="m56 408.5h368v-32h-368zm0 0" fill="#939598"/><path d="m176 408.5h128v32h-128zm0 0" fill="#939598"/><path d="m212.398438 148.101562c17.9375 5.839844 37.265624 5.839844 55.203124 0-5.523437-26.082031-15.839843-43.601562-27.601562-43.601562s-22.078125 17.519531-27.601562 43.601562zm0 0" fill="#0052b4"/><path d="m267.601562 148.101562c12.230469-4.066406 23.425782-10.753906 32.796876-19.601562-16.335938-15.40625-37.941407-23.992188-60.398438-24 11.761719 0 22.078125 17.519531 27.601562 43.601562zm0 0" fill="#0052b4"/><path d="m240 104.5c-22.457031.007812-44.0625 8.59375-60.398438 24 9.371094 8.847656 20.566407 15.535156 32.796876 19.601562 5.523437-26.082031 15.839843-43.601562 27.601562-43.601562zm0 0" fill="#0052b4"/><path d="m267.601562 236.898438c-17.9375-5.839844-37.265624-5.839844-55.203124 0 5.523437 26.082031 15.839843 43.601562 27.601562 43.601562s22.078125-17.519531 27.601562-43.601562zm0 0" fill="#0052b4"/><path d="m240 280.5c22.457031-.007812 44.0625-8.59375 60.398438-24-9.371094-8.847656-20.566407-15.535156-32.796876-19.601562-5.523437 26.082031-15.839843 43.601562-27.601562 43.601562zm0 0" fill="#0052b4"/><path d="m212.398438 236.898438c-12.230469 4.066406-23.425782 10.753906-32.796876 19.601562 16.335938 15.40625 37.941407 23.992188 60.398438 24-11.761719 0-22.078125-17.519531-27.601562-43.601562zm0 0" fill="#0052b4"/><path d="m434.816406 8.5h-389.632812c-20.535156 0-37.183594 16.648438-37.183594 37.183594v293.601562c-.019531 20.546875 16.636719 37.214844 37.183594 37.214844h389.601562c20.546875.019531 37.214844-16.636719 37.214844-37.183594v-293.632812c0-20.535156-16.648438-37.183594-37.183594-37.183594zm13.183594 72v259.3125c0 7.007812-5.679688 12.6875-12.6875 12.6875h-390.625c-7.007812 0-12.6875-5.679688-12.6875-12.6875v-294.625c0-7.007812 5.679688-12.6875 12.6875-12.6875h390.625c7.007812 0 12.6875 5.679688 12.6875 12.6875zm0 0" fill="#d1d3d4"/><path d="m435.3125 32.5h-390.625c-7.007812 0-12.6875 5.679688-12.6875 12.6875v35.3125h416v-35.3125c0-7.007812-5.679688-12.6875-12.6875-12.6875zm-27.3125 24" fill="#99c5f9"/><path d="m176 408.5h128v32h-128zm0 0" fill="#d1d3d4"/><g fill="#231f20"><path d="m322.03125 225.371094c-3.9375-2.003906-8.753906-.441406-10.757812 3.496094-3.074219 6-6.886719 11.589843-11.351563 16.640624-.394531-.3125-.800781-.574218-1.210937-.878906-.871094-.671875-1.765626-1.296875-2.65625-1.9375-1.765626-1.269531-3.558594-2.488281-5.40625-3.640625-.976563-.605469-1.960938-1.199219-2.960938-1.773437-1.933594-1.121094-3.917969-2.144532-5.933594-3.128906-.90625-.441407-1.792968-.914063-2.714844-1.328126-2.933593-1.3125-5.917968-2.519531-8.960937-3.527343-19.566406-6.328125-40.628906-6.328125-60.199219 0-3.039062 1.015625-6.027344 2.195312-8.941406 3.527343-.914062.40625-1.792969.871094-2.691406 1.3125-2.015625.976563-4 2.007813-5.949219 3.136719-1 .566407-1.96875 1.160157-2.945313 1.765625-1.847656 1.152344-3.640624 2.402344-5.40625 3.640625-.898437.640625-1.792968 1.265625-2.65625 1.9375-.402343.3125-.800781.574219-1.226562.886719-4.464844-5.050781-8.273438-10.644531-11.335938-16.648438-1.246093-2.636718-3.824218-4.382812-6.734374-4.566406-2.910157-.179687-5.6875 1.238282-7.25 3.699219s-1.664063 5.574219-.261719 8.132813c4.554687 8.960937 10.492187 17.148437 17.597656 24.261718.691406.695313 1.320313 1.296875 2 1.914063l.089844.078125.128906.121094h.046875c36.898438 34.582031 94.304688 34.582031 131.199219 0h.050781l.125-.121094.089844-.078125c.679687-.609375 1.3125-1.21875 2.03125-1.9375 7.085937-7.117188 13.023437-15.292969 17.601562-24.230469 2.011719-3.914062.488282-8.714844-3.410156-10.753906zm-48.886719 22.402344 1.320313.621093c1.757812.847657 3.488281 1.761719 5.183594 2.738281.648437.367188 1.3125.726563 1.953124 1.121094 2.183594 1.335938 4.320313 2.757813 6.398438 4.292969-6.84375 5.128906-14.460938 9.132813-22.566406 11.855469 3.28125-6.613282 5.863281-13.550782 7.710937-20.703125zm-15.199219-5.160157c-5.738281 21.511719-13.800781 29.886719-17.945312 29.886719s-12.207031-8.375-17.96875-29.929688c11.832031-2.65625 24.105469-2.65625 35.9375 0zm-59.554687 9.597657c.625-.375 1.265625-.726563 1.898437-1.09375 1.710938-.984376 3.460938-1.902344 5.246094-2.761719l1.296875-.617188c1.855469 7.128907 4.453125 14.042969 7.742188 20.632813-8.109375-2.730469-15.730469-6.738282-22.574219-11.871094 2.089844-1.535156 4.222656-2.960938 6.398438-4.296875zm0 0"/><path d="m157.96875 159.628906c3.9375 2.003906 8.753906.441406 10.757812-3.496094 3.074219-6 6.886719-11.589843 11.351563-16.640624.394531.3125.800781.574218 1.210937.886718.871094.664063 1.765626 1.289063 2.65625 1.929688 1.765626 1.269531 3.558594 2.488281 5.40625 3.640625.984376.605469 1.960938 1.199219 2.960938 1.773437 1.945312 1.121094 3.917969 2.152344 5.933594 3.128906.90625.441407 1.792968.914063 2.714844 1.320313 2.921874 1.332031 5.914062 2.511719 8.960937 3.535156 4.011719 1.28125 8.105469 2.296875 12.253906 3.039063 15.96875 3.046875 32.449219 2 47.902344-3.039063h.042969c3.03125-1.019531 6.011718-2.195312 8.925781-3.519531.929687-.414062 1.824219-.886719 2.738281-1.335938 2.007813-.976562 4-2 5.917969-3.113281.992187-.574219 1.960937-1.160156 2.9375-1.765625 1.863281-1.160156 3.671875-2.402344 5.457031-3.671875.871094-.632812 1.742188-1.234375 2.582032-1.890625.410156-.308594.800781-.582031 1.242187-.894531 4.460937 5.046875 8.277344 10.636719 11.351563 16.632813 1.246093 2.636718 3.824218 4.382812 6.734374 4.566406 2.910157.179687 5.6875-1.238282 7.25-3.699219s1.664063-5.574219.261719-8.132813c-4.574219-8.949218-10.511719-17.132812-17.597656-24.261718-.699219-.695313-1.328125-1.3125-2.019531-1.929688l-.0625-.070312c-1.105469-1.023438-2.28125-1.9375-3.425782-2.914063-1.140624-.976562-2.300781-2.054687-3.511718-2.992187-1.207032-.933594-2.621094-1.855469-3.941406-2.773438-1.167969-.800781-2.296876-1.699218-3.496094-2.457031-1.425782-.90625-2.914063-1.671875-4.367188-2.496094-1.160156-.65625-2.289062-1.375-3.472656-1.984375-1.601562-.800781-3.199219-1.464844-4.800781-2.175781-1.136719-.503906-2.238281-1.082031-3.398438-1.535156-1.601562-.632813-3.203125-1.121094-4.800781-1.664063-1.226562-.410156-2.402344-.898437-3.664062-1.257812-1.65625-.480469-3.359376-.800782-5.039063-1.214844-1.25-.289062-2.464844-.65625-3.722656-.894531-1.757813-.335938-3.550781-.523438-5.328125-.800781-1.214844-.160157-2.398438-.402344-3.640625-.519532-3.085938-.292968-6.164063-.441406-9.230469-.441406s-6.105469.144531-9.121094.433594c-1.191406.109375-2.359375.351562-3.542968.503906-1.808594.238281-3.632813.429688-5.425782.796875-1.199218.234375-2.398437.585937-3.566406.867187-1.734375.398438-3.488281.75-5.191406 1.246094-1.242188.359375-2.398438.847656-3.664063 1.257813-1.601562.542969-3.257812 1.03125-4.839843 1.664062-1.160157.453125-2.265626 1.03125-3.402344 1.535157-1.597656.710937-3.199219 1.375-4.796875 2.175781-1.152344.582031-2.242188 1.289062-3.371094 1.917969-1.492187.847656-3.015625 1.601562-4.46875 2.5625-1.160156.734374-2.257813 1.597656-3.394531 2.398437-1.351563.9375-2.734375 1.832031-4.046875 2.847656s-2.34375 1.992188-3.511719 2.992188-2.320312 1.890625-3.425781 2.914062l-.0625.0625c-.695313.617188-1.320313 1.230469-2.046875 1.960938-7.085938 7.117187-13.023438 15.292969-17.601563 24.230469-2.011719 3.925781-.46875 8.738281 3.449219 10.761718zm115.199219-22.359375c-1.859375-7.128906-4.457031-14.042969-7.742188-20.632812 8.105469 2.726562 15.726563 6.730469 22.574219 11.863281-4.625 3.457031-9.605469 6.40625-14.855469 8.800781zm-15.199219 5.160157c-11.832031 2.660156-24.105469 2.660156-35.9375 0 5.761719-21.554688 13.824219-29.929688 17.96875-29.929688s12.207031 8.367188 17.96875 29.929688zm-51.113281-5.128907c-5.25-2.394531-10.230469-5.34375-14.855469-8.800781 6.847656-5.132812 14.472656-9.136719 22.585938-11.863281-3.285157 6.601562-5.875 13.527343-7.730469 20.664062zm0 0"/><path d="m434.800781 384.5c24.949219-.03125 45.167969-20.25 45.199219-45.199219v-293.601562c-.03125-24.949219-20.25-45.167969-45.199219-45.199219h-389.601562c-24.949219.03125-45.167969 20.25-45.199219 45.199219v293.601562c.03125 24.949219 20.25 45.167969 45.199219 45.199219h2.800781v16h-19.503906c-7.390625 0-14.371094 3.402344-18.921875 9.230469-4.550781 5.824219-6.160157 13.421875-4.367188 20.59375l8 32c2.671875 10.683593 12.273438 18.179687 23.289063 18.175781h407.007812c11.015625.003906 20.617188-7.492188 23.289063-18.175781l8-32c1.792969-7.171875.183593-14.769531-4.367188-20.59375-4.550781-5.828125-11.53125-9.230469-18.921875-9.230469h-19.503906v-16zm-418.800781-45.199219v-293.601562c.019531-16.117188 13.082031-29.179688 29.199219-29.199219h389.601562c16.117188.019531 29.179688 13.082031 29.199219 29.199219v293.601562c-.019531 16.117188-13.082031 29.179688-29.199219 29.199219h-389.601562c-16.117188-.019531-29.179688-13.082031-29.199219-29.199219zm441.816406 80.277344c1.523438 1.9375 2.058594 4.46875 1.457032 6.859375l-8 32c-.890626 3.5625-4.09375 6.066406-7.769532 6.0625h-407.007812c-3.675782.003906-6.878906-2.5-7.769532-6.0625l-8-32c-.59375-2.390625-.054687-4.925781 1.460938-6.863281 1.519531-1.941407 3.84375-3.074219 6.308594-3.074219h139.503906v24c0 4.417969 3.582031 8 8 8h128c4.417969 0 8-3.582031 8-8v-24h139.503906c2.46875-.007812 4.800782 1.128906 6.3125 3.078125zm-273.816406-3.078125h112v16h-112zm232-16h-352v-16h352zm0 0"/><path d="m456 339.8125v-294.625c-.011719-11.417969-9.269531-20.675781-20.6875-20.6875h-390.625c-11.417969.011719-20.675781 9.269531-20.6875 20.6875v294.625c.011719 11.417969 9.269531 20.675781 20.6875 20.6875h390.625c11.417969-.011719 20.675781-9.269531 20.6875-20.6875zm-411.3125-299.3125h390.625c2.585938.003906 4.683594 2.101562 4.6875 4.6875v27.3125h-400v-27.3125c.003906-2.585938 2.101562-4.683594 4.6875-4.6875zm-4.6875 299.3125v-251.3125h400v251.3125c-.003906 2.585938-2.101562 4.683594-4.6875 4.6875h-390.625c-2.585938-.003906-4.683594-2.101562-4.6875-4.6875zm0 0"/><path d="m56 48.5h16v16h-16zm0 0"/><path d="m80 48.5h16v16h-16zm0 0"/><path d="m104 48.5h16v16h-16zm0 0"/><path d="m408 48.5h16v16h-16zm0 0"/><path d="m248 296.5h64v16h-64zm0 0"/><path d="m168 296.5h64v16h-64zm0 0"/><path d="m168 320.5h144v16h-144zm0 0"/><path d="m168 224.5h.230469c3.359375-.101562 6.292969-2.285156 7.355469-5.472656l16-48c1.394531-4.195313-.875-8.730469-5.074219-10.128906-4.195313-1.394532-8.730469.875-10.128907 5.074218l-9.101562 27.28125-7.898438-19.761718c-1.132812-3.078126-4.105468-5.085938-7.382812-4.992188-3.261719.007812-6.195312 1.996094-7.40625 5.023438l-7.890625 19.730468-9.09375-27.28125c-1.398437-4.199218-5.933594-6.46875-10.128906-5.074218-4.199219 1.398437-6.46875 5.933593-5.074219 10.128906l16 48c1.0625 3.183594 4 5.367187 7.351562 5.46875 3.355469.101562 6.417969-1.90625 7.667969-5.019532l8.574219-21.433593 8.566406 21.433593c1.21875 3.035157 4.160156 5.027344 7.433594 5.023438zm0 0"/><path d="m362.527344 160.90625c-4.191406-1.390625-8.714844.875-10.113282 5.066406l-9.09375 27.28125-7.886718-19.730468c-1.21875-3.035157-4.160156-5.027344-7.433594-5.023438-3.257812 0-6.191406 1.972656-7.414062 4.992188l-7.898438 19.761718-9.101562-27.28125c-1.398438-4.199218-5.933594-6.46875-10.128907-5.074218-4.199219 1.398437-6.46875 5.933593-5.074219 10.128906l16 48c1.0625 3.1875 3.996094 5.371094 7.351563 5.472656h.265625c3.273438.003906 6.214844-1.988281 7.433594-5.023438l8.566406-21.433593 8.566406 21.433593c1.25 3.113282 4.3125 5.121094 7.667969 5.019532 3.351563-.101563 6.289063-2.285156 7.351563-5.46875l16-48c1.394531-4.191406-.867188-8.71875-5.058594-10.121094zm0 0"/><path d="m264.414062 165.972656-9.09375 27.28125-7.886718-19.722656c-1.214844-3.042969-4.160156-5.039062-7.433594-5.039062s-6.21875 1.996093-7.433594 5.039062l-7.886718 19.722656-9.09375-27.28125c-1.398438-4.199218-5.933594-6.46875-10.128907-5.074218-4.199219 1.398437-6.46875 5.933593-5.074219 10.128906l16 48c0 .121094.121094.207031.167969.328125.121094.304687.296875.570312.449219.863281.292969.574219.652344 1.113281 1.070312 1.601562.214844.230469.441407.453126.683594.65625.542969.472657 1.148438.867188 1.796875 1.175782.160157.078125.273438.230468.449219.296875.070312.003906.144531.003906.214844 0 .886718.351562 1.832031.539062 2.785156.550781h.097656c.117188 0 .230469-.054688.351563-.0625.703125-.019531 1.402343-.132812 2.078125-.335938.121094-.042968.191406-.136718.304687-.175781.488281-.21875.957031-.488281 1.390625-.800781.433594-.230469.847656-.5 1.234375-.800781.320313-.351563.609375-.726563.863281-1.128907.355469-.429687.664063-.902343.917969-1.398437.050781-.105469.144531-.175781.195313-.28125l8.566406-21.472656 8.566406 21.433593c.058594.128907.152344.214844.210938.34375.121094.242188.261718.476563.414062.703126.339844.585937.753906 1.125 1.234375 1.601562.199219.203125.414063.394531.636719.574219.636719.507812 1.347656.917969 2.105469 1.207031.113281 0 .183593.136719.304687.179688h.09375c.785156.261718 1.605469.402343 2.433594.414062.9375-.011719 1.867188-.191406 2.742188-.527344.074218 0 .152343 0 .226562-.046875.070312-.050781.289062-.21875.445312-.296875.652344-.308594 1.257813-.703125 1.800782-1.175781.242187-.207031.46875-.425781.679687-.65625.421875-.488281.78125-1.027344 1.074219-1.601563.164062-.277343.3125-.5625.445312-.855468.050782-.121094.128907-.207032.171876-.328125l16-48c1.394531-4.195313-.875-8.730469-5.074219-10.128907-4.195313-1.394531-8.730469.875-10.128907 5.074219zm0 0"/></g></svg>